solid OpenSCAD_Model
  facet normal 0 0 -1
    outer loop
      vertex 32 -5 0
      vertex 27 0 0
      vertex 32 7.39999 0
    endloop
  endfacet
  facet normal 0 0 -1
    outer loop
      vertex 32 -5 0
      vertex 0 0 0
      vertex 27 0 0
    endloop
  endfacet
  facet normal -0 0 -1
    outer loop
      vertex 0 0 0
      vertex -5 -5 0
      vertex 0 2.39999 0
    endloop
  endfacet
  facet normal 0 0 -1
    outer loop
      vertex -5 -5 0
      vertex 0 0 0
      vertex 32 -5 0
    endloop
  endfacet
  facet normal 0 0 -1
    outer loop
      vertex 27 2.39999 0
      vertex 32 7.39999 0
      vertex 27 0 0
    endloop
  endfacet
  facet normal 0 0 -1
    outer loop
      vertex 0 2.39999 0
      vertex 32 7.39999 0
      vertex 27 2.39999 0
    endloop
  endfacet
  facet normal 0 0 -1
    outer loop
      vertex 0 2.39999 0
      vertex -5 7.39999 0
      vertex 32 7.39999 0
    endloop
  endfacet
  facet normal 0 0 -1
    outer loop
      vertex -5 7.39999 0
      vertex 0 2.39999 0
      vertex -5 -5 0
    endloop
  endfacet
  facet normal 0 0 1
    outer loop
      vertex 32 7.39999 1
      vertex 27 2.39999 1
      vertex 32 -5 1
    endloop
  endfacet
  facet normal 0 0 1
    outer loop
      vertex 32 7.39999 1
      vertex 0 2.39999 1
      vertex 27 2.39999 1
    endloop
  endfacet
  facet normal 0 0 1
    outer loop
      vertex 0 2.39999 1
      vertex -5 7.39999 1
      vertex 0 0 1
    endloop
  endfacet
  facet normal -0 0 1
    outer loop
      vertex -5 7.39999 1
      vertex 0 2.39999 1
      vertex 32 7.39999 1
    endloop
  endfacet
  facet normal -0 0 1
    outer loop
      vertex 27 0 1
      vertex 32 -5 1
      vertex 27 2.39999 1
    endloop
  endfacet
  facet normal -0 0 1
    outer loop
      vertex 0 0 1
      vertex 32 -5 1
      vertex 27 0 1
    endloop
  endfacet
  facet normal 0 0 1
    outer loop
      vertex 0 0 1
      vertex -5 -5 1
      vertex 32 -5 1
    endloop
  endfacet
  facet normal 0 0 1
    outer loop
      vertex -5 -5 1
      vertex 0 0 1
      vertex -5 7.39999 1
    endloop
  endfacet
  facet normal 0 1 -0
    outer loop
      vertex 32 7.39999 0
      vertex -5 7.39999 1
      vertex 32 7.39999 1
    endloop
  endfacet
  facet normal 0 1 0
    outer loop
      vertex -5 7.39999 1
      vertex 32 7.39999 0
      vertex -5 7.39999 0
    endloop
  endfacet
  facet normal -1 0 0
    outer loop
      vertex -5 -5 0
      vertex -5 7.39999 1
      vertex -5 7.39999 0
    endloop
  endfacet
  facet normal -1 -0 0
    outer loop
      vertex -5 7.39999 1
      vertex -5 -5 0
      vertex -5 -5 1
    endloop
  endfacet
  facet normal 0 -1 0
    outer loop
      vertex -5 -5 0
      vertex 32 -5 1
      vertex -5 -5 1
    endloop
  endfacet
  facet normal 0 -1 -0
    outer loop
      vertex 32 -5 1
      vertex -5 -5 0
      vertex 32 -5 0
    endloop
  endfacet
  facet normal 1 -0 0
    outer loop
      vertex 32 -5 1
      vertex 32 7.39999 0
      vertex 32 7.39999 1
    endloop
  endfacet
  facet normal 1 0 0
    outer loop
      vertex 32 7.39999 0
      vertex 32 -5 1
      vertex 32 -5 0
    endloop
  endfacet
  facet normal 1 -0 0
    outer loop
      vertex 0 0 1
      vertex 0 2.39999 0
      vertex 0 2.39999 1
    endloop
  endfacet
  facet normal 1 0 0
    outer loop
      vertex 0 2.39999 0
      vertex 0 0 1
      vertex 0 0 0
    endloop
  endfacet
  facet normal 0 -1 0
    outer loop
      vertex 0 2.39999 0
      vertex 27 2.39999 1
      vertex 0 2.39999 1
    endloop
  endfacet
  facet normal 0 -1 -0
    outer loop
      vertex 27 2.39999 1
      vertex 0 2.39999 0
      vertex 27 2.39999 0
    endloop
  endfacet
  facet normal -1 0 0
    outer loop
      vertex 27 0 0
      vertex 27 2.39999 1
      vertex 27 2.39999 0
    endloop
  endfacet
  facet normal -1 -0 0
    outer loop
      vertex 27 2.39999 1
      vertex 27 0 0
      vertex 27 0 1
    endloop
  endfacet
  facet normal 0 1 -0
    outer loop
      vertex 27 0 0
      vertex 0 0 1
      vertex 27 0 1
    endloop
  endfacet
  facet normal 0 1 0
    outer loop
      vertex 0 0 1
      vertex 27 0 0
      vertex 0 0 0
    endloop
  endfacet
endsolid OpenSCAD_Model
