solid OpenSCAD_Model
  facet normal 0 0.05234 -0.998629
    outer loop
      vertex 0 2.99589 0.357007
      vertex 27 3 0.357223
      vertex 27 2.99589 0.357007
    endloop
  endfacet
  facet normal 0 0.05234 -0.998629
    outer loop
      vertex 27 3 0.357223
      vertex 0 2.99589 0.357007
      vertex 0 3 0.357223
    endloop
  endfacet
  facet normal 0 0.99863 0.052336
    outer loop
      vertex 28 0.871504 60
      vertex 13.5 1.23836 53
      vertex -1 0.871504 60
    endloop
  endfacet
  facet normal 2.7664e-08 0.99863 0.0523359
    outer loop
      vertex 28 0.871504 60
      vertex 14.4271 1.24605 52.8532
      vertex 13.5 1.23836 53
    endloop
  endfacet
  facet normal 3.20222e-09 0.99863 0.0523359
    outer loop
      vertex 28 0.871504 60
      vertex 15.2634 1.26839 52.4271
      vertex 14.4271 1.24605 52.8532
    endloop
  endfacet
  facet normal -2.46563e-08 0.99863 0.052336
    outer loop
      vertex 28 0.871504 60
      vertex 15.9271 1.30317 51.7634
      vertex 15.2634 1.26839 52.4271
    endloop
  endfacet
  facet normal -1.68746e-08 0.99863 0.052336
    outer loop
      vertex 28 0.871504 60
      vertex 16.3532 1.347 50.9271
      vertex 15.9271 1.30317 51.7634
    endloop
  endfacet
  facet normal 9.83113e-08 0.99863 0.0523358
    outer loop
      vertex 28 0.871504 60
      vertex 16.5 1.39558 50
      vertex 16.3532 1.347 50.9271
    endloop
  endfacet
  facet normal 2.17459e-10 0.99863 0.0523359
    outer loop
      vertex 28 0.871504 60
      vertex 16.3532 1.44417 49.0729
      vertex 16.5 1.39558 50
    endloop
  endfacet
  facet normal -3.33909e-07 0.99863 0.0523363
    outer loop
      vertex 28 0.871504 60
      vertex 15.9271 1.488 48.2366
      vertex 16.3532 1.44417 49.0729
    endloop
  endfacet
  facet normal 1.04914e-08 0.99863 0.0523359
    outer loop
      vertex 28 3.96356 1
      vertex 15.9271 1.488 48.2366
      vertex 28 0.871504 60
    endloop
  endfacet
  facet normal 4.9042e-08 0.99863 0.052336
    outer loop
      vertex 14.4271 1.54511 47.1468
      vertex 28 3.96356 1
      vertex 13.5 1.5528 47
    endloop
  endfacet
  facet normal -8.82609e-08 0.99863 0.0523359
    outer loop
      vertex 15.2634 1.52278 47.5729
      vertex 28 3.96356 1
      vertex 14.4271 1.54511 47.1468
    endloop
  endfacet
  facet normal -8.62077e-08 0.99863 0.0523359
    outer loop
      vertex 15.9271 1.488 48.2366
      vertex 28 3.96356 1
      vertex 15.2634 1.52278 47.5729
    endloop
  endfacet
  facet normal -2.7664e-08 0.99863 0.0523359
    outer loop
      vertex 12.5729 1.24605 52.8532
      vertex -1 0.871504 60
      vertex 13.5 1.23836 53
    endloop
  endfacet
  facet normal -3.20222e-09 0.99863 0.0523359
    outer loop
      vertex 11.7366 1.26839 52.4271
      vertex -1 0.871504 60
      vertex 12.5729 1.24605 52.8532
    endloop
  endfacet
  facet normal 2.46563e-08 0.99863 0.052336
    outer loop
      vertex 11.0729 1.30317 51.7634
      vertex -1 0.871504 60
      vertex 11.7366 1.26839 52.4271
    endloop
  endfacet
  facet normal 1.68746e-08 0.99863 0.052336
    outer loop
      vertex 10.6468 1.347 50.9271
      vertex -1 0.871504 60
      vertex 11.0729 1.30317 51.7634
    endloop
  endfacet
  facet normal -9.83115e-08 0.99863 0.0523358
    outer loop
      vertex 10.5 1.39558 50
      vertex -1 0.871504 60
      vertex 10.6468 1.347 50.9271
    endloop
  endfacet
  facet normal -2.17459e-10 0.99863 0.0523359
    outer loop
      vertex 10.6468 1.44417 49.0729
      vertex -1 0.871504 60
      vertex 10.5 1.39558 50
    endloop
  endfacet
  facet normal 3.3391e-07 0.99863 0.0523363
    outer loop
      vertex 11.0729 1.488 48.2366
      vertex -1 0.871504 60
      vertex 10.6468 1.44417 49.0729
    endloop
  endfacet
  facet normal 8.62077e-08 0.99863 0.0523359
    outer loop
      vertex -1 3.96356 1
      vertex 11.0729 1.488 48.2366
      vertex 11.7366 1.52278 47.5729
    endloop
  endfacet
  facet normal -0 0.99863 0.0523359
    outer loop
      vertex -1 3.96356 1
      vertex 13.5 1.5528 47
      vertex 28 3.96356 1
    endloop
  endfacet
  facet normal -4.90419e-08 0.99863 0.052336
    outer loop
      vertex 13.5 1.5528 47
      vertex -1 3.96356 1
      vertex 12.5729 1.54511 47.1468
    endloop
  endfacet
  facet normal 8.82609e-08 0.99863 0.0523359
    outer loop
      vertex 12.5729 1.54511 47.1468
      vertex -1 3.96356 1
      vertex 11.7366 1.52278 47.5729
    endloop
  endfacet
  facet normal -1.04914e-08 0.99863 0.0523359
    outer loop
      vertex 11.0729 1.488 48.2366
      vertex -1 3.96356 1
      vertex -1 0.871504 60
    endloop
  endfacet
  facet normal -1 0 0
    outer loop
      vertex -1 -1.0433 1
      vertex -1 0.871504 60
      vertex -1 3.96356 1
    endloop
  endfacet
  facet normal -1 -0 0
    outer loop
      vertex -1 0.871504 60
      vertex -1 -1.0433 1
      vertex -1 -4.13536 60
    endloop
  endfacet
  facet normal 0 -0.99863 -0.052336
    outer loop
      vertex -1 -4.13536 60
      vertex 13.5 -3.7685 53
      vertex 28 -4.13536 60
    endloop
  endfacet
  facet normal 1.24355e-07 -0.99863 -0.0523357
    outer loop
      vertex -1 -4.13536 60
      vertex 12.5729 -3.76081 52.8532
      vertex 13.5 -3.7685 53
    endloop
  endfacet
  facet normal -7.34545e-08 -0.99863 -0.0523361
    outer loop
      vertex -1 -4.13536 60
      vertex 11.7366 -3.73848 52.4271
      vertex 12.5729 -3.76081 52.8532
    endloop
  endfacet
  facet normal -2.46563e-08 -0.99863 -0.052336
    outer loop
      vertex -1 -4.13536 60
      vertex 11.0729 -3.70369 51.7634
      vertex 11.7366 -3.73848 52.4271
    endloop
  endfacet
  facet normal -8.8939e-08 -0.99863 -0.0523361
    outer loop
      vertex -1 -4.13536 60
      vertex 10.6468 -3.65986 50.9271
      vertex 11.0729 -3.70369 51.7634
    endloop
  endfacet
  facet normal 1.96458e-07 -0.99863 -0.0523357
    outer loop
      vertex -1 -4.13536 60
      vertex 10.5 -3.61128 50
      vertex 10.6468 -3.65986 50.9271
    endloop
  endfacet
  facet normal -2.58781e-07 -0.99863 -0.0523362
    outer loop
      vertex -1 -4.13536 60
      vertex 10.6468 -3.56269 49.0729
      vertex 10.5 -3.61128 50
    endloop
  endfacet
  facet normal 2.1698e-07 -0.99863 -0.0523357
    outer loop
      vertex -1 -4.13536 60
      vertex 11.0729 -3.51887 48.2366
      vertex 10.6468 -3.56269 49.0729
    endloop
  endfacet
  facet normal -5.23652e-09 -0.99863 -0.052336
    outer loop
      vertex -1 -1.0433 1
      vertex 11.0729 -3.51887 48.2366
      vertex -1 -4.13536 60
    endloop
  endfacet
  facet normal 4.63092e-08 -0.99863 -0.052336
    outer loop
      vertex 12.5729 -3.46175 47.1468
      vertex -1 -1.0433 1
      vertex 13.5 -3.45406 47
    endloop
  endfacet
  facet normal -9.62628e-08 -0.99863 -0.0523359
    outer loop
      vertex 11.7366 -3.48408 47.5729
      vertex -1 -1.0433 1
      vertex 12.5729 -3.46175 47.1468
    endloop
  endfacet
  facet normal 4.05912e-08 -0.99863 -0.052336
    outer loop
      vertex 11.0729 -3.51887 48.2366
      vertex -1 -1.0433 1
      vertex 11.7366 -3.48408 47.5729
    endloop
  endfacet
  facet normal -1.24355e-07 -0.99863 -0.0523357
    outer loop
      vertex 14.4271 -3.76081 52.8532
      vertex 28 -4.13536 60
      vertex 13.5 -3.7685 53
    endloop
  endfacet
  facet normal 7.34545e-08 -0.99863 -0.0523361
    outer loop
      vertex 15.2634 -3.73848 52.4271
      vertex 28 -4.13536 60
      vertex 14.4271 -3.76081 52.8532
    endloop
  endfacet
  facet normal 2.46563e-08 -0.99863 -0.052336
    outer loop
      vertex 15.9271 -3.70369 51.7634
      vertex 28 -4.13536 60
      vertex 15.2634 -3.73848 52.4271
    endloop
  endfacet
  facet normal 8.8939e-08 -0.99863 -0.0523361
    outer loop
      vertex 16.3532 -3.65986 50.9271
      vertex 28 -4.13536 60
      vertex 15.9271 -3.70369 51.7634
    endloop
  endfacet
  facet normal -1.96458e-07 -0.99863 -0.0523357
    outer loop
      vertex 16.5 -3.61128 50
      vertex 28 -4.13536 60
      vertex 16.3532 -3.65986 50.9271
    endloop
  endfacet
  facet normal 2.58781e-07 -0.99863 -0.0523362
    outer loop
      vertex 16.3532 -3.56269 49.0729
      vertex 28 -4.13536 60
      vertex 16.5 -3.61128 50
    endloop
  endfacet
  facet normal -2.1698e-07 -0.99863 -0.0523357
    outer loop
      vertex 15.9271 -3.51887 48.2366
      vertex 28 -4.13536 60
      vertex 16.3532 -3.56269 49.0729
    endloop
  endfacet
  facet normal -4.05912e-08 -0.99863 -0.052336
    outer loop
      vertex 28 -1.0433 1
      vertex 15.9271 -3.51887 48.2366
      vertex 15.2634 -3.48408 47.5729
    endloop
  endfacet
  facet normal -0 -0.99863 -0.052336
    outer loop
      vertex 28 -1.0433 1
      vertex 13.5 -3.45406 47
      vertex -1 -1.0433 1
    endloop
  endfacet
  facet normal -4.63092e-08 -0.99863 -0.052336
    outer loop
      vertex 13.5 -3.45406 47
      vertex 28 -1.0433 1
      vertex 14.4271 -3.46175 47.1468
    endloop
  endfacet
  facet normal 9.62628e-08 -0.99863 -0.0523359
    outer loop
      vertex 14.4271 -3.46175 47.1468
      vertex 28 -1.0433 1
      vertex 15.2634 -3.48408 47.5729
    endloop
  endfacet
  facet normal 5.23652e-09 -0.99863 -0.052336
    outer loop
      vertex 15.9271 -3.51887 48.2366
      vertex 28 -1.0433 1
      vertex 28 -4.13536 60
    endloop
  endfacet
  facet normal 1 0 0
    outer loop
      vertex 28 0.871504 60
      vertex 28 -1.0433 1
      vertex 28 3.96356 1
    endloop
  endfacet
  facet normal 1 0 -0
    outer loop
      vertex 28 -1.0433 1
      vertex 28 0.871504 60
      vertex 28 -4.13536 60
    endloop
  endfacet
  facet normal 1 0 0
    outer loop
      vertex 0 -0.129867 60
      vertex 0 0 1
      vertex 0 2.99589 0.357007
    endloop
  endfacet
  facet normal 1 0 0
    outer loop
      vertex 0 -0.129867 60
      vertex 0 -0.0419262 1
      vertex 0 0 1
    endloop
  endfacet
  facet normal 1 0 0
    outer loop
      vertex 0 -0.0419262 1
      vertex 0 -0.129867 60
      vertex 0 -3.13398 60
    endloop
  endfacet
  facet normal 1 -0 0
    outer loop
      vertex 0 2.99589 0.357007
      vertex 0 3 0
      vertex 0 3 0.357223
    endloop
  endfacet
  facet normal 1 0 0
    outer loop
      vertex 0 0 0
      vertex 0 2.99589 0.357007
      vertex 0 0 1
    endloop
  endfacet
  facet normal 1 0 0
    outer loop
      vertex 0 2.99589 0.357007
      vertex 0 0 0
      vertex 0 3 0
    endloop
  endfacet
  facet normal 0 -0.99863 -0.0523359
    outer loop
      vertex 0 -0.129867 60
      vertex 13.5 0.236987 53
      vertex 27 -0.129867 60
    endloop
  endfacet
  facet normal 3.76022e-08 -0.99863 -0.0523359
    outer loop
      vertex 0 -0.129867 60
      vertex 12.5729 0.244682 52.8532
      vertex 13.5 0.236987 53
    endloop
  endfacet
  facet normal -5.9688e-08 -0.99863 -0.052336
    outer loop
      vertex 0 -0.129867 60
      vertex 11.7366 0.267014 52.4271
      vertex 12.5729 0.244682 52.8532
    endloop
  endfacet
  facet normal 2.22022e-08 -0.99863 -0.0523359
    outer loop
      vertex 0 -0.129867 60
      vertex 11.0729 0.301797 51.7634
      vertex 11.7366 0.267014 52.4271
    endloop
  endfacet
  facet normal -2.9674e-08 -0.99863 -0.052336
    outer loop
      vertex 0 -0.129867 60
      vertex 10.6468 0.345625 50.9271
      vertex 11.0729 0.301797 51.7634
    endloop
  endfacet
  facet normal 4.34612e-08 -0.99863 -0.0523359
    outer loop
      vertex 0 -0.129867 60
      vertex 10.5 0.39421 50
      vertex 10.6468 0.345625 50.9271
    endloop
  endfacet
  facet normal 2.2896e-08 -0.99863 -0.0523359
    outer loop
      vertex 0 -0.129867 60
      vertex 10.6468 0.442795 49.0729
      vertex 10.5 0.39421 50
    endloop
  endfacet
  facet normal -1.22711e-07 -0.99863 -0.052336
    outer loop
      vertex 0 -0.129867 60
      vertex 11.0729 0.486624 48.2366
      vertex 10.6468 0.442795 49.0729
    endloop
  endfacet
  facet normal 1.12889e-07 -0.99863 -0.052336
    outer loop
      vertex 12.5729 0.543738 47.1468
      vertex 0 2.99589 0.357007
      vertex 13.5 0.551433 47
    endloop
  endfacet
  facet normal -8.31541e-08 -0.99863 -0.0523359
    outer loop
      vertex 11.7366 0.521406 47.5729
      vertex 0 2.99589 0.357007
      vertex 12.5729 0.543738 47.1468
    endloop
  endfacet
  facet normal -7.71228e-08 -0.99863 -0.0523359
    outer loop
      vertex 11.0729 0.486624 48.2366
      vertex 0 2.99589 0.357007
      vertex 11.7366 0.521406 47.5729
    endloop
  endfacet
  facet normal 3.37809e-09 -0.99863 -0.0523359
    outer loop
      vertex 0 2.99589 0.357007
      vertex 11.0729 0.486624 48.2366
      vertex 0 -0.129867 60
    endloop
  endfacet
  facet normal -3.76022e-08 -0.99863 -0.0523359
    outer loop
      vertex 14.4271 0.244682 52.8532
      vertex 27 -0.129867 60
      vertex 13.5 0.236987 53
    endloop
  endfacet
  facet normal 5.9688e-08 -0.99863 -0.052336
    outer loop
      vertex 15.2634 0.267014 52.4271
      vertex 27 -0.129867 60
      vertex 14.4271 0.244682 52.8532
    endloop
  endfacet
  facet normal -2.22022e-08 -0.99863 -0.0523359
    outer loop
      vertex 15.9271 0.301797 51.7634
      vertex 27 -0.129867 60
      vertex 15.2634 0.267014 52.4271
    endloop
  endfacet
  facet normal 2.96741e-08 -0.99863 -0.052336
    outer loop
      vertex 16.3532 0.345625 50.9271
      vertex 27 -0.129867 60
      vertex 15.9271 0.301797 51.7634
    endloop
  endfacet
  facet normal -4.34611e-08 -0.99863 -0.0523359
    outer loop
      vertex 16.5 0.39421 50
      vertex 27 -0.129867 60
      vertex 16.3532 0.345625 50.9271
    endloop
  endfacet
  facet normal -2.2896e-08 -0.99863 -0.0523359
    outer loop
      vertex 16.3532 0.442795 49.0729
      vertex 27 -0.129867 60
      vertex 16.5 0.39421 50
    endloop
  endfacet
  facet normal 1.2271e-07 -0.99863 -0.052336
    outer loop
      vertex 15.9271 0.486624 48.2366
      vertex 27 -0.129867 60
      vertex 16.3532 0.442795 49.0729
    endloop
  endfacet
  facet normal -0 -0.99863 -0.0523359
    outer loop
      vertex 27 2.99589 0.357007
      vertex 13.5 0.551433 47
      vertex 0 2.99589 0.357007
    endloop
  endfacet
  facet normal -1.12889e-07 -0.99863 -0.052336
    outer loop
      vertex 13.5 0.551433 47
      vertex 27 2.99589 0.357007
      vertex 14.4271 0.543738 47.1468
    endloop
  endfacet
  facet normal 8.31541e-08 -0.99863 -0.0523359
    outer loop
      vertex 14.4271 0.543738 47.1468
      vertex 27 2.99589 0.357007
      vertex 15.2634 0.521406 47.5729
    endloop
  endfacet
  facet normal 7.71228e-08 -0.99863 -0.0523359
    outer loop
      vertex 15.2634 0.521406 47.5729
      vertex 27 2.99589 0.357007
      vertex 15.9271 0.486624 48.2366
    endloop
  endfacet
  facet normal -3.37809e-09 -0.99863 -0.0523359
    outer loop
      vertex 15.9271 0.486624 48.2366
      vertex 27 2.99589 0.357007
      vertex 27 -0.129867 60
    endloop
  endfacet
  facet normal -1 0 0
    outer loop
      vertex 27 3 0
      vertex 27 2.99589 0.357007
      vertex 27 3 0.357223
    endloop
  endfacet
  facet normal -1 0 0
    outer loop
      vertex 27 0 0
      vertex 27 2.99589 0.357007
      vertex 27 3 0
    endloop
  endfacet
  facet normal -1 0 0
    outer loop
      vertex 27 0 1
      vertex 27 2.99589 0.357007
      vertex 27 0 0
    endloop
  endfacet
  facet normal -1 0 0
    outer loop
      vertex 27 0 1
      vertex 27 -0.129867 60
      vertex 27 2.99589 0.357007
    endloop
  endfacet
  facet normal -1 0 0
    outer loop
      vertex 27 -0.0419262 1
      vertex 27 -0.129867 60
      vertex 27 0 1
    endloop
  endfacet
  facet normal -1 -0 -0
    outer loop
      vertex 27 -0.129867 60
      vertex 27 -0.0419262 1
      vertex 27 -3.13398 60
    endloop
  endfacet
  facet normal 0 0.99863 0.052336
    outer loop
      vertex 27 -3.13398 60
      vertex 13.5 -2.76713 53
      vertex 0 -3.13398 60
    endloop
  endfacet
  facet normal 1.2651e-07 0.99863 0.0523357
    outer loop
      vertex 27 -3.13398 60
      vertex 14.4271 -2.75944 52.8532
      vertex 13.5 -2.76713 53
    endloop
  endfacet
  facet normal -7.6216e-08 0.99863 0.0523361
    outer loop
      vertex 27 -3.13398 60
      vertex 15.2634 -2.7371 52.4271
      vertex 14.4271 -2.75944 52.8532
    endloop
  endfacet
  facet normal -2.59332e-08 0.99863 0.052336
    outer loop
      vertex 27 -3.13398 60
      vertex 15.9271 -2.70232 51.7634
      vertex 15.2634 -2.7371 52.4271
    endloop
  endfacet
  facet normal 5.8804e-08 0.99863 0.0523359
    outer loop
      vertex 27 -3.13398 60
      vertex 16.3532 -2.65849 50.9271
      vertex 15.9271 -2.70232 51.7634
    endloop
  endfacet
  facet normal 1.78449e-10 0.99863 0.0523359
    outer loop
      vertex 27 -3.13398 60
      vertex 16.5 -2.60991 50
      vertex 16.3532 -2.65849 50.9271
    endloop
  endfacet
  facet normal 2.41849e-10 0.99863 0.0523359
    outer loop
      vertex 27 -3.13398 60
      vertex 16.3532 -2.56132 49.0729
      vertex 16.5 -2.60991 50
    endloop
  endfacet
  facet normal -3.99649e-07 0.99863 0.0523363
    outer loop
      vertex 27 -3.13398 60
      vertex 15.9271 -2.51749 48.2366
      vertex 16.3532 -2.56132 49.0729
    endloop
  endfacet
  facet normal 4.8677e-08 0.99863 0.052336
    outer loop
      vertex 14.4271 -2.46038 47.1468
      vertex 27 -0.0419262 1
      vertex 13.5 -2.45268 47
    endloop
  endfacet
  facet normal -9.06676e-08 0.99863 0.0523359
    outer loop
      vertex 15.2634 -2.48271 47.5729
      vertex 27 -0.0419262 1
      vertex 14.4271 -2.46038 47.1468
    endloop
  endfacet
  facet normal -2.33694e-07 0.99863 0.0523359
    outer loop
      vertex 15.9271 -2.51749 48.2366
      vertex 27 -0.0419262 1
      vertex 15.2634 -2.48271 47.5729
    endloop
  endfacet
  facet normal 1.0702e-08 0.99863 0.0523359
    outer loop
      vertex 27 -0.0419262 1
      vertex 15.9271 -2.51749 48.2366
      vertex 27 -3.13398 60
    endloop
  endfacet
  facet normal -1.2651e-07 0.99863 0.0523357
    outer loop
      vertex 12.5729 -2.75944 52.8532
      vertex 0 -3.13398 60
      vertex 13.5 -2.76713 53
    endloop
  endfacet
  facet normal 7.6216e-08 0.99863 0.0523361
    outer loop
      vertex 11.7366 -2.7371 52.4271
      vertex 0 -3.13398 60
      vertex 12.5729 -2.75944 52.8532
    endloop
  endfacet
  facet normal 2.59332e-08 0.99863 0.052336
    outer loop
      vertex 11.0729 -2.70232 51.7634
      vertex 0 -3.13398 60
      vertex 11.7366 -2.7371 52.4271
    endloop
  endfacet
  facet normal -5.8804e-08 0.99863 0.0523359
    outer loop
      vertex 10.6468 -2.65849 50.9271
      vertex 0 -3.13398 60
      vertex 11.0729 -2.70232 51.7634
    endloop
  endfacet
  facet normal -1.7845e-10 0.99863 0.0523359
    outer loop
      vertex 10.5 -2.60991 50
      vertex 0 -3.13398 60
      vertex 10.6468 -2.65849 50.9271
    endloop
  endfacet
  facet normal -2.41848e-10 0.99863 0.0523359
    outer loop
      vertex 10.6468 -2.56132 49.0729
      vertex 0 -3.13398 60
      vertex 10.5 -2.60991 50
    endloop
  endfacet
  facet normal 3.9965e-07 0.99863 0.0523363
    outer loop
      vertex 11.0729 -2.51749 48.2366
      vertex 0 -3.13398 60
      vertex 10.6468 -2.56132 49.0729
    endloop
  endfacet
  facet normal -0 0.99863 0.0523359
    outer loop
      vertex 0 -0.0419262 1
      vertex 13.5 -2.45268 47
      vertex 27 -0.0419262 1
    endloop
  endfacet
  facet normal -4.8677e-08 0.99863 0.052336
    outer loop
      vertex 13.5 -2.45268 47
      vertex 0 -0.0419262 1
      vertex 12.5729 -2.46038 47.1468
    endloop
  endfacet
  facet normal 9.06676e-08 0.99863 0.0523359
    outer loop
      vertex 12.5729 -2.46038 47.1468
      vertex 0 -0.0419262 1
      vertex 11.7366 -2.48271 47.5729
    endloop
  endfacet
  facet normal 2.33694e-07 0.99863 0.0523359
    outer loop
      vertex 11.7366 -2.48271 47.5729
      vertex 0 -0.0419262 1
      vertex 11.0729 -2.51749 48.2366
    endloop
  endfacet
  facet normal -1.0702e-08 0.99863 0.0523359
    outer loop
      vertex 11.0729 -2.51749 48.2366
      vertex 0 -0.0419262 1
      vertex 0 -3.13398 60
    endloop
  endfacet
  facet normal -0.987688 0 -0.156435
    outer loop
      vertex 16.5 0.39421 50
      vertex 16.3532 1.347 50.9271
      vertex 16.5 1.39558 50
    endloop
  endfacet
  facet normal -0.987688 -0 -0.156435
    outer loop
      vertex 16.3532 1.347 50.9271
      vertex 16.5 0.39421 50
      vertex 16.3532 0.345625 50.9271
    endloop
  endfacet
  facet normal -0.987688 0 -0.156435
    outer loop
      vertex 16.5 -3.61128 50
      vertex 16.3532 -2.65849 50.9271
      vertex 16.5 -2.60991 50
    endloop
  endfacet
  facet normal -0.987688 -0 -0.156435
    outer loop
      vertex 16.3532 -2.65849 50.9271
      vertex 16.5 -3.61128 50
      vertex 16.3532 -3.65986 50.9271
    endloop
  endfacet
  facet normal -0.891007 0 -0.45399
    outer loop
      vertex 16.3532 0.345625 50.9271
      vertex 15.9271 1.30317 51.7634
      vertex 16.3532 1.347 50.9271
    endloop
  endfacet
  facet normal -0.891007 -0 -0.45399
    outer loop
      vertex 15.9271 1.30317 51.7634
      vertex 16.3532 0.345625 50.9271
      vertex 15.9271 0.301797 51.7634
    endloop
  endfacet
  facet normal -0.891007 0 -0.45399
    outer loop
      vertex 16.3532 -3.65986 50.9271
      vertex 15.9271 -2.70232 51.7634
      vertex 16.3532 -2.65849 50.9271
    endloop
  endfacet
  facet normal -0.891007 -0 -0.45399
    outer loop
      vertex 15.9271 -2.70232 51.7634
      vertex 16.3532 -3.65986 50.9271
      vertex 15.9271 -3.70369 51.7634
    endloop
  endfacet
  facet normal 0.156435 0 -0.987688
    outer loop
      vertex 12.5729 0.244682 52.8532
      vertex 13.5 1.23836 53
      vertex 13.5 0.236987 53
    endloop
  endfacet
  facet normal 0.156435 0 -0.987688
    outer loop
      vertex 13.5 1.23836 53
      vertex 12.5729 0.244682 52.8532
      vertex 12.5729 1.24605 52.8532
    endloop
  endfacet
  facet normal 0.156435 0 -0.987688
    outer loop
      vertex 12.5729 -3.76081 52.8532
      vertex 13.5 -2.76713 53
      vertex 13.5 -3.7685 53
    endloop
  endfacet
  facet normal 0.156435 0 -0.987688
    outer loop
      vertex 13.5 -2.76713 53
      vertex 12.5729 -3.76081 52.8532
      vertex 12.5729 -2.75944 52.8532
    endloop
  endfacet
  facet normal -0.453992 0 0.891006
    outer loop
      vertex 14.4271 0.543738 47.1468
      vertex 15.2634 1.52278 47.5729
      vertex 14.4271 1.54511 47.1468
    endloop
  endfacet
  facet normal -0.453992 0 0.891006
    outer loop
      vertex 15.2634 1.52278 47.5729
      vertex 14.4271 0.543738 47.1468
      vertex 15.2634 0.521406 47.5729
    endloop
  endfacet
  facet normal -0.453992 0 0.891006
    outer loop
      vertex 14.4271 -3.46175 47.1468
      vertex 15.2634 -2.48271 47.5729
      vertex 14.4271 -2.46038 47.1468
    endloop
  endfacet
  facet normal -0.453992 0 0.891006
    outer loop
      vertex 15.2634 -2.48271 47.5729
      vertex 14.4271 -3.46175 47.1468
      vertex 15.2634 -3.48408 47.5729
    endloop
  endfacet
  facet normal 0.891006 0 -0.453991
    outer loop
      vertex 11.0729 1.30317 51.7634
      vertex 10.6468 0.345625 50.9271
      vertex 10.6468 1.347 50.9271
    endloop
  endfacet
  facet normal 0.891006 0 -0.453991
    outer loop
      vertex 10.6468 0.345625 50.9271
      vertex 11.0729 1.30317 51.7634
      vertex 11.0729 0.301797 51.7634
    endloop
  endfacet
  facet normal 0.891006 0 -0.453991
    outer loop
      vertex 11.0729 -2.70232 51.7634
      vertex 10.6468 -3.65986 50.9271
      vertex 10.6468 -2.65849 50.9271
    endloop
  endfacet
  facet normal 0.891006 0 -0.453991
    outer loop
      vertex 10.6468 -3.65986 50.9271
      vertex 11.0729 -2.70232 51.7634
      vertex 11.0729 -3.70369 51.7634
    endloop
  endfacet
  facet normal 0.453989 0 -0.891007
    outer loop
      vertex 11.7366 0.267014 52.4271
      vertex 12.5729 1.24605 52.8532
      vertex 12.5729 0.244682 52.8532
    endloop
  endfacet
  facet normal 0.453989 0 -0.891007
    outer loop
      vertex 12.5729 1.24605 52.8532
      vertex 11.7366 0.267014 52.4271
      vertex 11.7366 1.26839 52.4271
    endloop
  endfacet
  facet normal 0.453989 0 -0.891007
    outer loop
      vertex 11.7366 -3.73848 52.4271
      vertex 12.5729 -2.75944 52.8532
      vertex 12.5729 -3.76081 52.8532
    endloop
  endfacet
  facet normal 0.453989 0 -0.891007
    outer loop
      vertex 12.5729 -2.75944 52.8532
      vertex 11.7366 -3.73848 52.4271
      vertex 11.7366 -2.7371 52.4271
    endloop
  endfacet
  facet normal 0.891006 0 0.453991
    outer loop
      vertex 10.6468 1.44417 49.0729
      vertex 11.0729 0.486624 48.2366
      vertex 11.0729 1.488 48.2366
    endloop
  endfacet
  facet normal 0.891006 0 0.453991
    outer loop
      vertex 11.0729 0.486624 48.2366
      vertex 10.6468 1.44417 49.0729
      vertex 10.6468 0.442795 49.0729
    endloop
  endfacet
  facet normal 0.891006 0 0.453991
    outer loop
      vertex 10.6468 -2.56132 49.0729
      vertex 11.0729 -3.51887 48.2366
      vertex 11.0729 -2.51749 48.2366
    endloop
  endfacet
  facet normal 0.891006 0 0.453991
    outer loop
      vertex 11.0729 -3.51887 48.2366
      vertex 10.6468 -2.56132 49.0729
      vertex 10.6468 -3.56269 49.0729
    endloop
  endfacet
  facet normal -0.156436 -0 -0.987688
    outer loop
      vertex 13.5 1.23836 53
      vertex 14.4271 0.244682 52.8532
      vertex 13.5 0.236987 53
    endloop
  endfacet
  facet normal -0.156436 0 -0.987688
    outer loop
      vertex 14.4271 0.244682 52.8532
      vertex 13.5 1.23836 53
      vertex 14.4271 1.24605 52.8532
    endloop
  endfacet
  facet normal -0.156436 -0 -0.987688
    outer loop
      vertex 13.5 -2.76713 53
      vertex 14.4271 -3.76081 52.8532
      vertex 13.5 -3.7685 53
    endloop
  endfacet
  facet normal -0.156436 0 -0.987688
    outer loop
      vertex 14.4271 -3.76081 52.8532
      vertex 13.5 -2.76713 53
      vertex 14.4271 -2.75944 52.8532
    endloop
  endfacet
  facet normal 0.987688 0 -0.156433
    outer loop
      vertex 10.6468 1.347 50.9271
      vertex 10.5 0.39421 50
      vertex 10.5 1.39558 50
    endloop
  endfacet
  facet normal 0.987688 0 -0.156433
    outer loop
      vertex 10.5 0.39421 50
      vertex 10.6468 1.347 50.9271
      vertex 10.6468 0.345625 50.9271
    endloop
  endfacet
  facet normal 0.987688 0 -0.156433
    outer loop
      vertex 10.6468 -2.65849 50.9271
      vertex 10.5 -3.61128 50
      vertex 10.5 -2.60991 50
    endloop
  endfacet
  facet normal 0.987688 0 -0.156433
    outer loop
      vertex 10.5 -3.61128 50
      vertex 10.6468 -2.65849 50.9271
      vertex 10.6468 -3.65986 50.9271
    endloop
  endfacet
  facet normal 0.987688 0 0.156433
    outer loop
      vertex 10.5 1.39558 50
      vertex 10.6468 0.442795 49.0729
      vertex 10.6468 1.44417 49.0729
    endloop
  endfacet
  facet normal 0.987688 0 0.156433
    outer loop
      vertex 10.6468 0.442795 49.0729
      vertex 10.5 1.39558 50
      vertex 10.5 0.39421 50
    endloop
  endfacet
  facet normal 0.987688 0 0.156433
    outer loop
      vertex 10.5 -2.60991 50
      vertex 10.6468 -3.56269 49.0729
      vertex 10.6468 -2.56132 49.0729
    endloop
  endfacet
  facet normal 0.987688 0 0.156433
    outer loop
      vertex 10.6468 -3.56269 49.0729
      vertex 10.5 -2.60991 50
      vertex 10.5 -3.61128 50
    endloop
  endfacet
  facet normal -0.707107 0 0.707106
    outer loop
      vertex 15.2634 0.521406 47.5729
      vertex 15.9271 1.488 48.2366
      vertex 15.2634 1.52278 47.5729
    endloop
  endfacet
  facet normal -0.707107 0 0.707106
    outer loop
      vertex 15.9271 1.488 48.2366
      vertex 15.2634 0.521406 47.5729
      vertex 15.9271 0.486624 48.2366
    endloop
  endfacet
  facet normal -0.707107 0 0.707106
    outer loop
      vertex 15.2634 -3.48408 47.5729
      vertex 15.9271 -2.51749 48.2366
      vertex 15.2634 -2.48271 47.5729
    endloop
  endfacet
  facet normal -0.707107 0 0.707106
    outer loop
      vertex 15.9271 -2.51749 48.2366
      vertex 15.2634 -3.48408 47.5729
      vertex 15.9271 -3.51887 48.2366
    endloop
  endfacet
  facet normal -0.987688 0 0.156435
    outer loop
      vertex 16.3532 0.442795 49.0729
      vertex 16.5 1.39558 50
      vertex 16.3532 1.44417 49.0729
    endloop
  endfacet
  facet normal -0.987688 0 0.156435
    outer loop
      vertex 16.5 1.39558 50
      vertex 16.3532 0.442795 49.0729
      vertex 16.5 0.39421 50
    endloop
  endfacet
  facet normal -0.987688 0 0.156435
    outer loop
      vertex 16.3532 -3.56269 49.0729
      vertex 16.5 -2.60991 50
      vertex 16.3532 -2.56132 49.0729
    endloop
  endfacet
  facet normal -0.987688 0 0.156435
    outer loop
      vertex 16.5 -2.60991 50
      vertex 16.3532 -3.56269 49.0729
      vertex 16.5 -3.61128 50
    endloop
  endfacet
  facet normal 0.156432 0 0.987689
    outer loop
      vertex 12.5729 1.54511 47.1468
      vertex 13.5 0.551433 47
      vertex 13.5 1.5528 47
    endloop
  endfacet
  facet normal 0.156432 0 0.987689
    outer loop
      vertex 13.5 0.551433 47
      vertex 12.5729 1.54511 47.1468
      vertex 12.5729 0.543738 47.1468
    endloop
  endfacet
  facet normal 0.156432 0 0.987689
    outer loop
      vertex 12.5729 -2.46038 47.1468
      vertex 13.5 -3.45406 47
      vertex 13.5 -2.45268 47
    endloop
  endfacet
  facet normal 0.156432 0 0.987689
    outer loop
      vertex 13.5 -3.45406 47
      vertex 12.5729 -2.46038 47.1468
      vertex 12.5729 -3.46175 47.1468
    endloop
  endfacet
  facet normal -0.156432 0 0.987689
    outer loop
      vertex 13.5 0.551433 47
      vertex 14.4271 1.54511 47.1468
      vertex 13.5 1.5528 47
    endloop
  endfacet
  facet normal -0.156432 0 0.987689
    outer loop
      vertex 14.4271 1.54511 47.1468
      vertex 13.5 0.551433 47
      vertex 14.4271 0.543738 47.1468
    endloop
  endfacet
  facet normal -0.156432 0 0.987689
    outer loop
      vertex 13.5 -3.45406 47
      vertex 14.4271 -2.46038 47.1468
      vertex 13.5 -2.45268 47
    endloop
  endfacet
  facet normal -0.156432 0 0.987689
    outer loop
      vertex 14.4271 -2.46038 47.1468
      vertex 13.5 -3.45406 47
      vertex 14.4271 -3.46175 47.1468
    endloop
  endfacet
  facet normal -0.707107 0 -0.707106
    outer loop
      vertex 15.9271 0.301797 51.7634
      vertex 15.2634 1.26839 52.4271
      vertex 15.9271 1.30317 51.7634
    endloop
  endfacet
  facet normal -0.707107 -0 -0.707106
    outer loop
      vertex 15.2634 1.26839 52.4271
      vertex 15.9271 0.301797 51.7634
      vertex 15.2634 0.267014 52.4271
    endloop
  endfacet
  facet normal -0.707107 0 -0.707106
    outer loop
      vertex 15.9271 -3.70369 51.7634
      vertex 15.2634 -2.7371 52.4271
      vertex 15.9271 -2.70232 51.7634
    endloop
  endfacet
  facet normal -0.707107 -0 -0.707106
    outer loop
      vertex 15.2634 -2.7371 52.4271
      vertex 15.9271 -3.70369 51.7634
      vertex 15.2634 -3.73848 52.4271
    endloop
  endfacet
  facet normal -0.453989 -0 -0.891007
    outer loop
      vertex 14.4271 1.24605 52.8532
      vertex 15.2634 0.267014 52.4271
      vertex 14.4271 0.244682 52.8532
    endloop
  endfacet
  facet normal -0.453989 0 -0.891007
    outer loop
      vertex 15.2634 0.267014 52.4271
      vertex 14.4271 1.24605 52.8532
      vertex 15.2634 1.26839 52.4271
    endloop
  endfacet
  facet normal -0.453989 -0 -0.891007
    outer loop
      vertex 14.4271 -2.75944 52.8532
      vertex 15.2634 -3.73848 52.4271
      vertex 14.4271 -3.76081 52.8532
    endloop
  endfacet
  facet normal -0.453989 0 -0.891007
    outer loop
      vertex 15.2634 -3.73848 52.4271
      vertex 14.4271 -2.75944 52.8532
      vertex 15.2634 -2.7371 52.4271
    endloop
  endfacet
  facet normal 0.707107 0 -0.707106
    outer loop
      vertex 11.7366 1.26839 52.4271
      vertex 11.0729 0.301797 51.7634
      vertex 11.0729 1.30317 51.7634
    endloop
  endfacet
  facet normal 0.707107 0 -0.707106
    outer loop
      vertex 11.0729 0.301797 51.7634
      vertex 11.7366 1.26839 52.4271
      vertex 11.7366 0.267014 52.4271
    endloop
  endfacet
  facet normal 0.707107 0 -0.707106
    outer loop
      vertex 11.7366 -2.7371 52.4271
      vertex 11.0729 -3.70369 51.7634
      vertex 11.0729 -2.70232 51.7634
    endloop
  endfacet
  facet normal 0.707107 0 -0.707106
    outer loop
      vertex 11.0729 -3.70369 51.7634
      vertex 11.7366 -2.7371 52.4271
      vertex 11.7366 -3.73848 52.4271
    endloop
  endfacet
  facet normal 0.707107 0 0.707106
    outer loop
      vertex 11.0729 1.488 48.2366
      vertex 11.7366 0.521406 47.5729
      vertex 11.7366 1.52278 47.5729
    endloop
  endfacet
  facet normal 0.707107 0 0.707106
    outer loop
      vertex 11.7366 0.521406 47.5729
      vertex 11.0729 1.488 48.2366
      vertex 11.0729 0.486624 48.2366
    endloop
  endfacet
  facet normal 0.707107 0 0.707106
    outer loop
      vertex 11.0729 -2.51749 48.2366
      vertex 11.7366 -3.48408 47.5729
      vertex 11.7366 -2.48271 47.5729
    endloop
  endfacet
  facet normal 0.707107 0 0.707106
    outer loop
      vertex 11.7366 -3.48408 47.5729
      vertex 11.0729 -2.51749 48.2366
      vertex 11.0729 -3.51887 48.2366
    endloop
  endfacet
  facet normal 0.453992 0 0.891006
    outer loop
      vertex 11.7366 1.52278 47.5729
      vertex 12.5729 0.543738 47.1468
      vertex 12.5729 1.54511 47.1468
    endloop
  endfacet
  facet normal 0.453992 0 0.891006
    outer loop
      vertex 12.5729 0.543738 47.1468
      vertex 11.7366 1.52278 47.5729
      vertex 11.7366 0.521406 47.5729
    endloop
  endfacet
  facet normal 0.453992 0 0.891006
    outer loop
      vertex 11.7366 -2.48271 47.5729
      vertex 12.5729 -3.46175 47.1468
      vertex 12.5729 -2.46038 47.1468
    endloop
  endfacet
  facet normal 0.453992 0 0.891006
    outer loop
      vertex 12.5729 -3.46175 47.1468
      vertex 11.7366 -2.48271 47.5729
      vertex 11.7366 -3.48408 47.5729
    endloop
  endfacet
  facet normal -0.891007 0 0.45399
    outer loop
      vertex 15.9271 0.486624 48.2366
      vertex 16.3532 1.44417 49.0729
      vertex 15.9271 1.488 48.2366
    endloop
  endfacet
  facet normal -0.891007 0 0.45399
    outer loop
      vertex 16.3532 1.44417 49.0729
      vertex 15.9271 0.486624 48.2366
      vertex 16.3532 0.442795 49.0729
    endloop
  endfacet
  facet normal -0.891007 0 0.45399
    outer loop
      vertex 15.9271 -3.51887 48.2366
      vertex 16.3532 -2.56132 49.0729
      vertex 15.9271 -2.51749 48.2366
    endloop
  endfacet
  facet normal -0.891007 0 0.45399
    outer loop
      vertex 16.3532 -2.56132 49.0729
      vertex 15.9271 -3.51887 48.2366
      vertex 16.3532 -3.56269 49.0729
    endloop
  endfacet
  facet normal 0 0 1
    outer loop
      vertex 28 0.871504 60
      vertex 27 -0.129867 60
      vertex 28 -4.13536 60
    endloop
  endfacet
  facet normal 0 0 1
    outer loop
      vertex 28 0.871504 60
      vertex 0 -0.129867 60
      vertex 27 -0.129867 60
    endloop
  endfacet
  facet normal 0 0 1
    outer loop
      vertex 0 -0.129867 60
      vertex -1 0.871504 60
      vertex 0 -3.13398 60
    endloop
  endfacet
  facet normal -0 0 1
    outer loop
      vertex -1 0.871504 60
      vertex 0 -0.129867 60
      vertex 28 0.871504 60
    endloop
  endfacet
  facet normal -0 0 1
    outer loop
      vertex 27 -3.13398 60
      vertex 28 -4.13536 60
      vertex 27 -0.129867 60
    endloop
  endfacet
  facet normal -0 0 1
    outer loop
      vertex 0 -3.13398 60
      vertex 28 -4.13536 60
      vertex 27 -3.13398 60
    endloop
  endfacet
  facet normal 0 0 1
    outer loop
      vertex 0 -3.13398 60
      vertex -1 -4.13536 60
      vertex 28 -4.13536 60
    endloop
  endfacet
  facet normal 0 0 1
    outer loop
      vertex -1 -4.13536 60
      vertex 0 -3.13398 60
      vertex -1 0.871504 60
    endloop
  endfacet
  facet normal 0 0 -1
    outer loop
      vertex 32 -5 0
      vertex 27 0 0
      vertex 32 8 0
    endloop
  endfacet
  facet normal 0 0 -1
    outer loop
      vertex 32 -5 0
      vertex 0 0 0
      vertex 27 0 0
    endloop
  endfacet
  facet normal -0 0 -1
    outer loop
      vertex 0 0 0
      vertex -5 -5 0
      vertex 0 3 0
    endloop
  endfacet
  facet normal 0 0 -1
    outer loop
      vertex -5 -5 0
      vertex 0 0 0
      vertex 32 -5 0
    endloop
  endfacet
  facet normal 0 0 -1
    outer loop
      vertex 27 3 0
      vertex 32 8 0
      vertex 27 0 0
    endloop
  endfacet
  facet normal 0 0 -1
    outer loop
      vertex 0 3 0
      vertex 32 8 0
      vertex 27 3 0
    endloop
  endfacet
  facet normal 0 0 -1
    outer loop
      vertex 0 3 0
      vertex -5 8 0
      vertex 32 8 0
    endloop
  endfacet
  facet normal 0 0 -1
    outer loop
      vertex -5 8 0
      vertex 0 3 0
      vertex -5 -5 0
    endloop
  endfacet
  facet normal 0 0 1
    outer loop
      vertex 32 8 1
      vertex 28 3.96356 1
      vertex 32 -5 1
    endloop
  endfacet
  facet normal 0 0 1
    outer loop
      vertex 32 8 1
      vertex -1 3.96356 1
      vertex 28 3.96356 1
    endloop
  endfacet
  facet normal 0 0 1
    outer loop
      vertex -1 3.96356 1
      vertex -5 8 1
      vertex -1 -1.0433 1
    endloop
  endfacet
  facet normal -0 0 1
    outer loop
      vertex -5 8 1
      vertex -1 3.96356 1
      vertex 32 8 1
    endloop
  endfacet
  facet normal -0 0 1
    outer loop
      vertex 28 -1.0433 1
      vertex 32 -5 1
      vertex 28 3.96356 1
    endloop
  endfacet
  facet normal -0 0 1
    outer loop
      vertex -1 -1.0433 1
      vertex 32 -5 1
      vertex 28 -1.0433 1
    endloop
  endfacet
  facet normal 0 0 1
    outer loop
      vertex -1 -1.0433 1
      vertex -5 -5 1
      vertex 32 -5 1
    endloop
  endfacet
  facet normal 0 0 1
    outer loop
      vertex -5 -5 1
      vertex -1 -1.0433 1
      vertex -5 8 1
    endloop
  endfacet
  facet normal -0 0 1
    outer loop
      vertex 0 0 1
      vertex 27 -0.0419262 1
      vertex 27 0 1
    endloop
  endfacet
  facet normal 0 0 1
    outer loop
      vertex 27 -0.0419262 1
      vertex 0 0 1
      vertex 0 -0.0419262 1
    endloop
  endfacet
  facet normal 0 1 -0
    outer loop
      vertex 32 8 0
      vertex -5 8 1
      vertex 32 8 1
    endloop
  endfacet
  facet normal 0 1 0
    outer loop
      vertex -5 8 1
      vertex 32 8 0
      vertex -5 8 0
    endloop
  endfacet
  facet normal -1 0 0
    outer loop
      vertex -5 -5 0
      vertex -5 8 1
      vertex -5 8 0
    endloop
  endfacet
  facet normal -1 -0 0
    outer loop
      vertex -5 8 1
      vertex -5 -5 0
      vertex -5 -5 1
    endloop
  endfacet
  facet normal 0 -1 0
    outer loop
      vertex -5 -5 0
      vertex 32 -5 1
      vertex -5 -5 1
    endloop
  endfacet
  facet normal 0 -1 -0
    outer loop
      vertex 32 -5 1
      vertex -5 -5 0
      vertex 32 -5 0
    endloop
  endfacet
  facet normal 1 -0 0
    outer loop
      vertex 32 -5 1
      vertex 32 8 0
      vertex 32 8 1
    endloop
  endfacet
  facet normal 1 0 0
    outer loop
      vertex 32 8 0
      vertex 32 -5 1
      vertex 32 -5 0
    endloop
  endfacet
  facet normal 0 -1 0
    outer loop
      vertex 0 3 0
      vertex 27 3 0.357223
      vertex 0 3 0.357223
    endloop
  endfacet
  facet normal 0 -1 -0
    outer loop
      vertex 27 3 0.357223
      vertex 0 3 0
      vertex 27 3 0
    endloop
  endfacet
  facet normal 0 1 -0
    outer loop
      vertex 27 0 0
      vertex 0 0 1
      vertex 27 0 1
    endloop
  endfacet
  facet normal 0 1 0
    outer loop
      vertex 0 0 1
      vertex 27 0 0
      vertex 0 0 0
    endloop
  endfacet
endsolid OpenSCAD_Model
