solid OpenSCAD_Model
  facet normal 0 0.996428 0.0844431
    outer loop
      vertex 20 10 0
      vertex 0.25 9 11.8
      vertex 19.75 9 11.8
    endloop
  endfacet
  facet normal 0 0.996428 0.0844431
    outer loop
      vertex 0.25 9 11.8
      vertex 20 10 0
      vertex 0 10 0
    endloop
  endfacet
  facet normal -0.999776 0 0.0211817
    outer loop
      vertex 0 10 0
      vertex 0.25 1 11.8
      vertex 0.25 9 11.8
    endloop
  endfacet
  facet normal -0.999776 0 0.0211817
    outer loop
      vertex 0.25 1 11.8
      vertex 0 10 0
      vertex 0 0 0
    endloop
  endfacet
  facet normal 0 -0.996428 0.0844431
    outer loop
      vertex 0 0 0
      vertex 19.75 1 11.8
      vertex 0.25 1 11.8
    endloop
  endfacet
  facet normal 0 -0.996428 0.0844431
    outer loop
      vertex 19.75 1 11.8
      vertex 0 0 0
      vertex 20 0 0
    endloop
  endfacet
  facet normal 0.999776 -0 0.0211817
    outer loop
      vertex 19.75 1 11.8
      vertex 20 10 0
      vertex 19.75 9 11.8
    endloop
  endfacet
  facet normal 0.999776 0 0.0211817
    outer loop
      vertex 20 10 0
      vertex 19.75 1 11.8
      vertex 20 0 0
    endloop
  endfacet
  facet normal 0 0 1
    outer loop
      vertex 19.75 9 11.8
      vertex 18.75 5.5 11.8
      vertex 19.75 1 11.8
    endloop
  endfacet
  facet normal 0 0 1
    outer loop
      vertex 19.75 9 11.8
      vertex 1.25 5.5 11.8
      vertex 18.75 5.5 11.8
    endloop
  endfacet
  facet normal 0 0 1
    outer loop
      vertex 1.25 5.5 11.8
      vertex 0.25 9 11.8
      vertex 1.25 4.5 11.8
    endloop
  endfacet
  facet normal -0 0 1
    outer loop
      vertex 0.25 9 11.8
      vertex 1.25 5.5 11.8
      vertex 19.75 9 11.8
    endloop
  endfacet
  facet normal -0 0 1
    outer loop
      vertex 18.75 4.5 11.8
      vertex 19.75 1 11.8
      vertex 18.75 5.5 11.8
    endloop
  endfacet
  facet normal -0 0 1
    outer loop
      vertex 1.25 4.5 11.8
      vertex 19.75 1 11.8
      vertex 18.75 4.5 11.8
    endloop
  endfacet
  facet normal 0 0 1
    outer loop
      vertex 1.25 4.5 11.8
      vertex 0.25 1 11.8
      vertex 19.75 1 11.8
    endloop
  endfacet
  facet normal 0 0 1
    outer loop
      vertex 0.25 1 11.8
      vertex 1.25 4.5 11.8
      vertex 0.25 9 11.8
    endloop
  endfacet
  facet normal 0 0 -1
    outer loop
      vertex 20 0 0
      vertex 10.7 2.9 0
      vertex 20 10 0
    endloop
  endfacet
  facet normal 0 0 -1
    outer loop
      vertex 20 0 0
      vertex 9.3 2.9 0
      vertex 10.7 2.9 0
    endloop
  endfacet
  facet normal -0 0 -1
    outer loop
      vertex 9.3 2.9 0
      vertex 0 0 0
      vertex 9.3 7.1 0
    endloop
  endfacet
  facet normal 0 0 -1
    outer loop
      vertex 0 0 0
      vertex 9.3 2.9 0
      vertex 20 0 0
    endloop
  endfacet
  facet normal 0 0 -1
    outer loop
      vertex 10.7 7.1 0
      vertex 20 10 0
      vertex 10.7 2.9 0
    endloop
  endfacet
  facet normal 0 0 -1
    outer loop
      vertex 9.3 7.1 0
      vertex 20 10 0
      vertex 10.7 7.1 0
    endloop
  endfacet
  facet normal 0 0 -1
    outer loop
      vertex 9.3 7.1 0
      vertex 0 10 0
      vertex 20 10 0
    endloop
  endfacet
  facet normal 0 0 -1
    outer loop
      vertex 0 10 0
      vertex 9.3 7.1 0
      vertex 0 0 0
    endloop
  endfacet
  facet normal 1 -0 0
    outer loop
      vertex 9.3 2.9 10.5
      vertex 9.3 7.1 0
      vertex 9.3 7.1 10.5
    endloop
  endfacet
  facet normal 1 0 0
    outer loop
      vertex 9.3 7.1 0
      vertex 9.3 2.9 10.5
      vertex 9.3 2.9 0
    endloop
  endfacet
  facet normal 0 0 -1
    outer loop
      vertex 9.3 2.9 10.5
      vertex 10.7 7.1 10.5
      vertex 10.7 2.9 10.5
    endloop
  endfacet
  facet normal -0 0 -1
    outer loop
      vertex 10.7 7.1 10.5
      vertex 9.3 2.9 10.5
      vertex 9.3 7.1 10.5
    endloop
  endfacet
  facet normal -1 0 0
    outer loop
      vertex 10.7 2.9 0
      vertex 10.7 7.1 10.5
      vertex 10.7 7.1 0
    endloop
  endfacet
  facet normal -1 -0 0
    outer loop
      vertex 10.7 7.1 10.5
      vertex 10.7 2.9 0
      vertex 10.7 2.9 10.5
    endloop
  endfacet
  facet normal 0 1 -0
    outer loop
      vertex 10.7 2.9 0
      vertex 9.3 2.9 10.5
      vertex 10.7 2.9 10.5
    endloop
  endfacet
  facet normal 0 1 0
    outer loop
      vertex 9.3 2.9 10.5
      vertex 10.7 2.9 0
      vertex 9.3 2.9 0
    endloop
  endfacet
  facet normal 0 -1 0
    outer loop
      vertex 9.3 7.1 0
      vertex 10.7 7.1 10.5
      vertex 9.3 7.1 10.5
    endloop
  endfacet
  facet normal 0 -1 -0
    outer loop
      vertex 10.7 7.1 10.5
      vertex 9.3 7.1 0
      vertex 10.7 7.1 0
    endloop
  endfacet
  facet normal 1 -0 0
    outer loop
      vertex 1.25 4.5 11.8
      vertex 1.25 5.5 10.8
      vertex 1.25 5.5 11.8
    endloop
  endfacet
  facet normal 1 0 0
    outer loop
      vertex 1.25 5.5 10.8
      vertex 1.25 4.5 11.8
      vertex 1.25 4.5 10.8
    endloop
  endfacet
  facet normal -1 0 0
    outer loop
      vertex 18.75 4.5 10.8
      vertex 18.75 5.5 11.8
      vertex 18.75 5.5 10.8
    endloop
  endfacet
  facet normal -1 -0 0
    outer loop
      vertex 18.75 5.5 11.8
      vertex 18.75 4.5 10.8
      vertex 18.75 4.5 11.8
    endloop
  endfacet
  facet normal -0 0 1
    outer loop
      vertex 1.25 5.5 10.8
      vertex 18.75 4.5 10.8
      vertex 18.75 5.5 10.8
    endloop
  endfacet
  facet normal 0 0 1
    outer loop
      vertex 18.75 4.5 10.8
      vertex 1.25 5.5 10.8
      vertex 1.25 4.5 10.8
    endloop
  endfacet
  facet normal 0 1 -0
    outer loop
      vertex 18.75 4.5 10.8
      vertex 1.25 4.5 11.8
      vertex 18.75 4.5 11.8
    endloop
  endfacet
  facet normal 0 1 0
    outer loop
      vertex 1.25 4.5 11.8
      vertex 18.75 4.5 10.8
      vertex 1.25 4.5 10.8
    endloop
  endfacet
  facet normal 0 -1 0
    outer loop
      vertex 1.25 5.5 10.8
      vertex 18.75 5.5 11.8
      vertex 1.25 5.5 11.8
    endloop
  endfacet
  facet normal 0 -1 -0
    outer loop
      vertex 18.75 5.5 11.8
      vertex 1.25 5.5 10.8
      vertex 18.75 5.5 10.8
    endloop
  endfacet
endsolid OpenSCAD_Model
