solid OpenSCAD_Model
  facet normal 0.991445 0.130527 0
    outer loop
      vertex 4 0 14
      vertex 3.8637 1.03528 0
      vertex 3.8637 1.03528 14
    endloop
  endfacet
  facet normal 0.991445 0.130527 0
    outer loop
      vertex 3.8637 1.03528 0
      vertex 4 0 14
      vertex 4 0 0
    endloop
  endfacet
  facet normal -0.991445 0.130527 0
    outer loop
      vertex -4 0 0
      vertex -3.8637 1.03528 14
      vertex -3.8637 1.03528 0
    endloop
  endfacet
  facet normal -0.991445 0.130527 0
    outer loop
      vertex -3.8637 1.03528 14
      vertex -4 0 0
      vertex -4 0 14
    endloop
  endfacet
  facet normal 0.130527 0.991445 -0
    outer loop
      vertex 1.03528 3.8637 0
      vertex 0 4 14
      vertex 1.03528 3.8637 14
    endloop
  endfacet
  facet normal 0.130527 0.991445 0
    outer loop
      vertex 0 4 14
      vertex 1.03528 3.8637 0
      vertex 0 4 0
    endloop
  endfacet
  facet normal -0.130527 -0.991445 0
    outer loop
      vertex -1.03528 -3.8637 0
      vertex 0 -4 14
      vertex -1.03528 -3.8637 14
    endloop
  endfacet
  facet normal -0.130527 -0.991445 -0
    outer loop
      vertex 0 -4 14
      vertex -1.03528 -3.8637 0
      vertex 0 -4 0
    endloop
  endfacet
  facet normal 0.608762 0.793353 -0
    outer loop
      vertex 2.82843 2.82843 0
      vertex 2 3.4641 14
      vertex 2.82843 2.82843 14
    endloop
  endfacet
  facet normal 0.608762 0.793353 0
    outer loop
      vertex 2 3.4641 14
      vertex 2.82843 2.82843 0
      vertex 2 3.4641 0
    endloop
  endfacet
  facet normal 0.923879 0.382684 0
    outer loop
      vertex 3.8637 1.03528 14
      vertex 3.4641 2 0
      vertex 3.4641 2 14
    endloop
  endfacet
  facet normal 0.923879 0.382684 0
    outer loop
      vertex 3.4641 2 0
      vertex 3.8637 1.03528 14
      vertex 3.8637 1.03528 0
    endloop
  endfacet
  facet normal 0.382683 0.92388 -0
    outer loop
      vertex 2 3.4641 0
      vertex 1.03528 3.8637 14
      vertex 2 3.4641 14
    endloop
  endfacet
  facet normal 0.382683 0.92388 0
    outer loop
      vertex 1.03528 3.8637 14
      vertex 2 3.4641 0
      vertex 1.03528 3.8637 0
    endloop
  endfacet
  facet normal -0.608761 0.793353 0
    outer loop
      vertex -2 3.4641 0
      vertex -2.82843 2.82843 14
      vertex -2 3.4641 14
    endloop
  endfacet
  facet normal -0.608761 0.793353 0
    outer loop
      vertex -2.82843 2.82843 14
      vertex -2 3.4641 0
      vertex -2.82843 2.82843 0
    endloop
  endfacet
  facet normal -0.793353 0.608761 0
    outer loop
      vertex -3.4641 2 0
      vertex -2.82843 2.82843 14
      vertex -2.82843 2.82843 0
    endloop
  endfacet
  facet normal -0.793353 0.608761 0
    outer loop
      vertex -2.82843 2.82843 14
      vertex -3.4641 2 0
      vertex -3.4641 2 14
    endloop
  endfacet
  facet normal -0.382684 0.923879 0
    outer loop
      vertex -1.03528 3.8637 0
      vertex -2 3.4641 14
      vertex -1.03528 3.8637 14
    endloop
  endfacet
  facet normal -0.382684 0.923879 0
    outer loop
      vertex -2 3.4641 14
      vertex -1.03528 3.8637 0
      vertex -2 3.4641 0
    endloop
  endfacet
  facet normal 0.793353 -0.608762 0
    outer loop
      vertex 2.82843 -2.82843 14
      vertex 3.4641 -2 0
      vertex 3.4641 -2 14
    endloop
  endfacet
  facet normal 0.793353 -0.608762 0
    outer loop
      vertex 3.4641 -2 0
      vertex 2.82843 -2.82843 14
      vertex 2.82843 -2.82843 0
    endloop
  endfacet
  facet normal 0.92388 -0.382683 0
    outer loop
      vertex 3.4641 -2 14
      vertex 3.8637 -1.03528 0
      vertex 3.8637 -1.03528 14
    endloop
  endfacet
  facet normal 0.92388 -0.382683 0
    outer loop
      vertex 3.8637 -1.03528 0
      vertex 3.4641 -2 14
      vertex 3.4641 -2 0
    endloop
  endfacet
  facet normal -0.608762 -0.793353 0
    outer loop
      vertex -2.82843 -2.82843 0
      vertex -2 -3.4641 14
      vertex -2.82843 -2.82843 14
    endloop
  endfacet
  facet normal -0.608762 -0.793353 -0
    outer loop
      vertex -2 -3.4641 14
      vertex -2.82843 -2.82843 0
      vertex -2 -3.4641 0
    endloop
  endfacet
  facet normal 0 0 -1
    outer loop
      vertex 2.2 0 0
      vertex 4 0 0
      vertex 3.8637 -1.03528 0
    endloop
  endfacet
  facet normal 0 0 -1
    outer loop
      vertex 2.12504 -0.569402 0
      vertex 3.8637 -1.03528 0
      vertex 3.4641 -2 0
    endloop
  endfacet
  facet normal 0 0 -1
    outer loop
      vertex 4 0 0
      vertex 2.2 0 0
      vertex 3.8637 1.03528 0
    endloop
  endfacet
  facet normal 0 0 -1
    outer loop
      vertex 1.90526 -1.1 0
      vertex 3.4641 -2 0
      vertex 2.82843 -2.82843 0
    endloop
  endfacet
  facet normal 0 0 -1
    outer loop
      vertex 2.12504 0.569402 0
      vertex 3.8637 1.03528 0
      vertex 2.2 0 0
    endloop
  endfacet
  facet normal -0 0 -1
    outer loop
      vertex 3.8637 1.03528 0
      vertex 2.12504 0.569402 0
      vertex 3.4641 2 0
    endloop
  endfacet
  facet normal 0 0 -1
    outer loop
      vertex 3.8637 -1.03528 0
      vertex 2.12504 -0.569402 0
      vertex 2.2 0 0
    endloop
  endfacet
  facet normal 0 0 -1
    outer loop
      vertex 1.55563 -1.55563 0
      vertex 2.82843 -2.82843 0
      vertex 2 -3.4641 0
    endloop
  endfacet
  facet normal 0 0 -1
    outer loop
      vertex 3.4641 -2 0
      vertex 1.90526 -1.1 0
      vertex 2.12504 -0.569402 0
    endloop
  endfacet
  facet normal 0 0 -1
    outer loop
      vertex 2.82843 -2.82843 0
      vertex 1.55563 -1.55563 0
      vertex 1.90526 -1.1 0
    endloop
  endfacet
  facet normal 0 0 -1
    outer loop
      vertex 2 -3.4641 0
      vertex 1.1 -1.90526 0
      vertex 1.55563 -1.55563 0
    endloop
  endfacet
  facet normal 0 0 -1
    outer loop
      vertex 1.03528 -3.8637 0
      vertex 1.1 -1.90526 0
      vertex 2 -3.4641 0
    endloop
  endfacet
  facet normal 0 0 -1
    outer loop
      vertex 1.03528 -3.8637 0
      vertex 0.569402 -2.12504 0
      vertex 1.1 -1.90526 0
    endloop
  endfacet
  facet normal 0 0 -1
    outer loop
      vertex 0 -4 0
      vertex 0.569402 -2.12504 0
      vertex 1.03528 -3.8637 0
    endloop
  endfacet
  facet normal 0 0 -1
    outer loop
      vertex 0 -4 0
      vertex 0 -2.2 0
      vertex 0.569402 -2.12504 0
    endloop
  endfacet
  facet normal 0 0 -1
    outer loop
      vertex 0 -4 0
      vertex -0.569402 -2.12504 0
      vertex 0 -2.2 0
    endloop
  endfacet
  facet normal 0 0 -1
    outer loop
      vertex -1.03528 -3.8637 0
      vertex -0.569402 -2.12504 0
      vertex 0 -4 0
    endloop
  endfacet
  facet normal 0 0 -1
    outer loop
      vertex -1.03528 -3.8637 0
      vertex -1.1 -1.90526 0
      vertex -0.569402 -2.12504 0
    endloop
  endfacet
  facet normal 0 0 -1
    outer loop
      vertex -2 -3.4641 0
      vertex -1.1 -1.90526 0
      vertex -1.03528 -3.8637 0
    endloop
  endfacet
  facet normal -0 0 -1
    outer loop
      vertex -1.1 -1.90526 0
      vertex -2 -3.4641 0
      vertex -1.55563 -1.55563 0
    endloop
  endfacet
  facet normal 0 0 -1
    outer loop
      vertex -2.82843 -2.82843 0
      vertex -1.55563 -1.55563 0
      vertex -2 -3.4641 0
    endloop
  endfacet
  facet normal -0 0 -1
    outer loop
      vertex -1.55563 -1.55563 0
      vertex -2.82843 -2.82843 0
      vertex -1.90526 -1.1 0
    endloop
  endfacet
  facet normal 0 0 -1
    outer loop
      vertex -3.4641 -2 0
      vertex -1.90526 -1.1 0
      vertex -2.82843 -2.82843 0
    endloop
  endfacet
  facet normal -0 0 -1
    outer loop
      vertex -1.90526 -1.1 0
      vertex -3.4641 -2 0
      vertex -2.12504 -0.569402 0
    endloop
  endfacet
  facet normal 0 0 -1
    outer loop
      vertex 1.90526 1.1 0
      vertex 3.4641 2 0
      vertex 2.12504 0.569402 0
    endloop
  endfacet
  facet normal -0 0 -1
    outer loop
      vertex 3.4641 2 0
      vertex 1.90526 1.1 0
      vertex 2.82843 2.82843 0
    endloop
  endfacet
  facet normal 0 0 -1
    outer loop
      vertex 1.55563 1.55563 0
      vertex 2.82843 2.82843 0
      vertex 1.90526 1.1 0
    endloop
  endfacet
  facet normal -0 0 -1
    outer loop
      vertex 2.82843 2.82843 0
      vertex 1.55563 1.55563 0
      vertex 2 3.4641 0
    endloop
  endfacet
  facet normal 0 0 -1
    outer loop
      vertex 1.1 1.90526 0
      vertex 2 3.4641 0
      vertex 1.55563 1.55563 0
    endloop
  endfacet
  facet normal 0 0 -1
    outer loop
      vertex 1.1 1.90526 0
      vertex 1.03528 3.8637 0
      vertex 2 3.4641 0
    endloop
  endfacet
  facet normal 0 0 -1
    outer loop
      vertex 0.569402 2.12504 0
      vertex 1.03528 3.8637 0
      vertex 1.1 1.90526 0
    endloop
  endfacet
  facet normal 0 0 -1
    outer loop
      vertex 0 2.2 0
      vertex 1.03528 3.8637 0
      vertex 0.569402 2.12504 0
    endloop
  endfacet
  facet normal 0 0 -1
    outer loop
      vertex 0 2.2 0
      vertex 0 4 0
      vertex 1.03528 3.8637 0
    endloop
  endfacet
  facet normal 0 0 -1
    outer loop
      vertex -0.569402 2.12504 0
      vertex 0 4 0
      vertex 0 2.2 0
    endloop
  endfacet
  facet normal 0 0 -1
    outer loop
      vertex -0.569402 2.12504 0
      vertex -1.03528 3.8637 0
      vertex 0 4 0
    endloop
  endfacet
  facet normal 0 0 -1
    outer loop
      vertex -1.1 1.90526 0
      vertex -1.03528 3.8637 0
      vertex -0.569402 2.12504 0
    endloop
  endfacet
  facet normal 0 0 -1
    outer loop
      vertex -2 3.4641 0
      vertex -1.1 1.90526 0
      vertex -1.55563 1.55563 0
    endloop
  endfacet
  facet normal 0 0 -1
    outer loop
      vertex -2.82843 2.82843 0
      vertex -1.55563 1.55563 0
      vertex -1.90526 1.1 0
    endloop
  endfacet
  facet normal 0 0 -1
    outer loop
      vertex -1.1 1.90526 0
      vertex -2 3.4641 0
      vertex -1.03528 3.8637 0
    endloop
  endfacet
  facet normal 0 0 -1
    outer loop
      vertex -3.4641 2 0
      vertex -1.90526 1.1 0
      vertex -2.12504 0.569402 0
    endloop
  endfacet
  facet normal 0 0 -1
    outer loop
      vertex -3.8637 1.03528 0
      vertex -2.12504 0.569402 0
      vertex -2.2 0 0
    endloop
  endfacet
  facet normal 0 0 -1
    outer loop
      vertex -3.8637 -1.03528 0
      vertex -2.12504 -0.569402 0
      vertex -3.4641 -2 0
    endloop
  endfacet
  facet normal 0 0 -1
    outer loop
      vertex -1.55563 1.55563 0
      vertex -2.82843 2.82843 0
      vertex -2 3.4641 0
    endloop
  endfacet
  facet normal -0 0 -1
    outer loop
      vertex -2.12504 -0.569402 0
      vertex -3.8637 -1.03528 0
      vertex -2.2 0 0
    endloop
  endfacet
  facet normal 0 0 -1
    outer loop
      vertex -1.90526 1.1 0
      vertex -3.4641 2 0
      vertex -2.82843 2.82843 0
    endloop
  endfacet
  facet normal 0 0 -1
    outer loop
      vertex -4 0 0
      vertex -2.2 0 0
      vertex -3.8637 -1.03528 0
    endloop
  endfacet
  facet normal 0 0 -1
    outer loop
      vertex -2.12504 0.569402 0
      vertex -3.8637 1.03528 0
      vertex -3.4641 2 0
    endloop
  endfacet
  facet normal 0 0 -1
    outer loop
      vertex -2.2 0 0
      vertex -4 0 0
      vertex -3.8637 1.03528 0
    endloop
  endfacet
  facet normal 0.793353 0.608761 0
    outer loop
      vertex 3.4641 2 14
      vertex 2.82843 2.82843 0
      vertex 2.82843 2.82843 14
    endloop
  endfacet
  facet normal 0.793353 0.608761 0
    outer loop
      vertex 2.82843 2.82843 0
      vertex 3.4641 2 14
      vertex 3.4641 2 0
    endloop
  endfacet
  facet normal -0.923879 0.382684 0
    outer loop
      vertex -3.8637 1.03528 0
      vertex -3.4641 2 14
      vertex -3.4641 2 0
    endloop
  endfacet
  facet normal -0.923879 0.382684 0
    outer loop
      vertex -3.4641 2 14
      vertex -3.8637 1.03528 0
      vertex -3.8637 1.03528 14
    endloop
  endfacet
  facet normal 0 0 1
    outer loop
      vertex 2.2 0 14
      vertex 4 0 14
      vertex 3.8637 1.03528 14
    endloop
  endfacet
  facet normal 0 0 1
    outer loop
      vertex 2.12504 0.569402 14
      vertex 3.8637 1.03528 14
      vertex 3.4641 2 14
    endloop
  endfacet
  facet normal 0 0 1
    outer loop
      vertex 4 0 14
      vertex 2.2 0 14
      vertex 3.8637 -1.03528 14
    endloop
  endfacet
  facet normal 0 0 1
    outer loop
      vertex 1.90526 1.1 14
      vertex 3.4641 2 14
      vertex 2.82843 2.82843 14
    endloop
  endfacet
  facet normal -0 0 1
    outer loop
      vertex 2.12504 -0.569402 14
      vertex 3.8637 -1.03528 14
      vertex 2.2 0 14
    endloop
  endfacet
  facet normal 0 0 1
    outer loop
      vertex 3.8637 -1.03528 14
      vertex 2.12504 -0.569402 14
      vertex 3.4641 -2 14
    endloop
  endfacet
  facet normal 0 0 1
    outer loop
      vertex 3.8637 1.03528 14
      vertex 2.12504 0.569402 14
      vertex 2.2 0 14
    endloop
  endfacet
  facet normal 0 0 1
    outer loop
      vertex 1.55563 1.55563 14
      vertex 2.82843 2.82843 14
      vertex 2 3.4641 14
    endloop
  endfacet
  facet normal 0 0 1
    outer loop
      vertex 3.4641 2 14
      vertex 1.90526 1.1 14
      vertex 2.12504 0.569402 14
    endloop
  endfacet
  facet normal 0 0 1
    outer loop
      vertex 2.82843 2.82843 14
      vertex 1.55563 1.55563 14
      vertex 1.90526 1.1 14
    endloop
  endfacet
  facet normal 0 0 1
    outer loop
      vertex 2 3.4641 14
      vertex 1.1 1.90526 14
      vertex 1.55563 1.55563 14
    endloop
  endfacet
  facet normal 0 0 1
    outer loop
      vertex 1.03528 3.8637 14
      vertex 1.1 1.90526 14
      vertex 2 3.4641 14
    endloop
  endfacet
  facet normal 0 0 1
    outer loop
      vertex 1.03528 3.8637 14
      vertex 0.569402 2.12504 14
      vertex 1.1 1.90526 14
    endloop
  endfacet
  facet normal 0 0 1
    outer loop
      vertex 0 4 14
      vertex 0.569402 2.12504 14
      vertex 1.03528 3.8637 14
    endloop
  endfacet
  facet normal 0 0 1
    outer loop
      vertex 0 4 14
      vertex 0 2.2 14
      vertex 0.569402 2.12504 14
    endloop
  endfacet
  facet normal 0 0 1
    outer loop
      vertex 0 4 14
      vertex -0.569402 2.12504 14
      vertex 0 2.2 14
    endloop
  endfacet
  facet normal -0 0 1
    outer loop
      vertex -1.03528 3.8637 14
      vertex -0.569402 2.12504 14
      vertex 0 4 14
    endloop
  endfacet
  facet normal 0 0 1
    outer loop
      vertex -1.03528 3.8637 14
      vertex -1.1 1.90526 14
      vertex -0.569402 2.12504 14
    endloop
  endfacet
  facet normal -0 0 1
    outer loop
      vertex -2 3.4641 14
      vertex -1.1 1.90526 14
      vertex -1.03528 3.8637 14
    endloop
  endfacet
  facet normal 0 0 1
    outer loop
      vertex -1.1 1.90526 14
      vertex -2 3.4641 14
      vertex -1.55563 1.55563 14
    endloop
  endfacet
  facet normal -0 0 1
    outer loop
      vertex -2.82843 2.82843 14
      vertex -1.55563 1.55563 14
      vertex -2 3.4641 14
    endloop
  endfacet
  facet normal 0 0 1
    outer loop
      vertex -1.55563 1.55563 14
      vertex -2.82843 2.82843 14
      vertex -1.90526 1.1 14
    endloop
  endfacet
  facet normal -0 0 1
    outer loop
      vertex -3.4641 2 14
      vertex -1.90526 1.1 14
      vertex -2.82843 2.82843 14
    endloop
  endfacet
  facet normal 0 0 1
    outer loop
      vertex -1.90526 1.1 14
      vertex -3.4641 2 14
      vertex -2.12504 0.569402 14
    endloop
  endfacet
  facet normal -0 0 1
    outer loop
      vertex 1.90526 -1.1 14
      vertex 3.4641 -2 14
      vertex 2.12504 -0.569402 14
    endloop
  endfacet
  facet normal 0 0 1
    outer loop
      vertex 3.4641 -2 14
      vertex 1.90526 -1.1 14
      vertex 2.82843 -2.82843 14
    endloop
  endfacet
  facet normal -0 0 1
    outer loop
      vertex 1.55563 -1.55563 14
      vertex 2.82843 -2.82843 14
      vertex 1.90526 -1.1 14
    endloop
  endfacet
  facet normal 0 0 1
    outer loop
      vertex 2.82843 -2.82843 14
      vertex 1.55563 -1.55563 14
      vertex 2 -3.4641 14
    endloop
  endfacet
  facet normal -0 0 1
    outer loop
      vertex 1.1 -1.90526 14
      vertex 2 -3.4641 14
      vertex 1.55563 -1.55563 14
    endloop
  endfacet
  facet normal 0 0 1
    outer loop
      vertex 1.1 -1.90526 14
      vertex 1.03528 -3.8637 14
      vertex 2 -3.4641 14
    endloop
  endfacet
  facet normal -0 0 1
    outer loop
      vertex 0.569402 -2.12504 14
      vertex 1.03528 -3.8637 14
      vertex 1.1 -1.90526 14
    endloop
  endfacet
  facet normal -0 0 1
    outer loop
      vertex 0 -2.2 14
      vertex 1.03528 -3.8637 14
      vertex 0.569402 -2.12504 14
    endloop
  endfacet
  facet normal 0 0 1
    outer loop
      vertex 0 -2.2 14
      vertex 0 -4 14
      vertex 1.03528 -3.8637 14
    endloop
  endfacet
  facet normal 0 0 1
    outer loop
      vertex -0.569402 -2.12504 14
      vertex 0 -4 14
      vertex 0 -2.2 14
    endloop
  endfacet
  facet normal 0 0 1
    outer loop
      vertex -0.569402 -2.12504 14
      vertex -1.03528 -3.8637 14
      vertex 0 -4 14
    endloop
  endfacet
  facet normal 0 0 1
    outer loop
      vertex -1.1 -1.90526 14
      vertex -1.03528 -3.8637 14
      vertex -0.569402 -2.12504 14
    endloop
  endfacet
  facet normal 0 0 1
    outer loop
      vertex -2 -3.4641 14
      vertex -1.1 -1.90526 14
      vertex -1.55563 -1.55563 14
    endloop
  endfacet
  facet normal 0 0 1
    outer loop
      vertex -2.82843 -2.82843 14
      vertex -1.55563 -1.55563 14
      vertex -1.90526 -1.1 14
    endloop
  endfacet
  facet normal 0 0 1
    outer loop
      vertex -1.1 -1.90526 14
      vertex -2 -3.4641 14
      vertex -1.03528 -3.8637 14
    endloop
  endfacet
  facet normal 0 0 1
    outer loop
      vertex -3.4641 -2 14
      vertex -1.90526 -1.1 14
      vertex -2.12504 -0.569402 14
    endloop
  endfacet
  facet normal 0 0 1
    outer loop
      vertex -3.8637 -1.03528 14
      vertex -2.12504 -0.569402 14
      vertex -2.2 0 14
    endloop
  endfacet
  facet normal -0 0 1
    outer loop
      vertex -3.8637 1.03528 14
      vertex -2.12504 0.569402 14
      vertex -3.4641 2 14
    endloop
  endfacet
  facet normal 0 0 1
    outer loop
      vertex -1.55563 -1.55563 14
      vertex -2.82843 -2.82843 14
      vertex -2 -3.4641 14
    endloop
  endfacet
  facet normal 0 0 1
    outer loop
      vertex -2.12504 0.569402 14
      vertex -3.8637 1.03528 14
      vertex -2.2 0 14
    endloop
  endfacet
  facet normal 0 0 1
    outer loop
      vertex -1.90526 -1.1 14
      vertex -3.4641 -2 14
      vertex -2.82843 -2.82843 14
    endloop
  endfacet
  facet normal 0 0 1
    outer loop
      vertex -4 0 14
      vertex -2.2 0 14
      vertex -3.8637 1.03528 14
    endloop
  endfacet
  facet normal 0 0 1
    outer loop
      vertex -2.12504 -0.569402 14
      vertex -3.8637 -1.03528 14
      vertex -3.4641 -2 14
    endloop
  endfacet
  facet normal 0 0 1
    outer loop
      vertex -2.2 0 14
      vertex -4 0 14
      vertex -3.8637 -1.03528 14
    endloop
  endfacet
  facet normal -0.130527 0.991445 0
    outer loop
      vertex 0 4 0
      vertex -1.03528 3.8637 14
      vertex 0 4 14
    endloop
  endfacet
  facet normal -0.130527 0.991445 0
    outer loop
      vertex -1.03528 3.8637 14
      vertex 0 4 0
      vertex -1.03528 3.8637 0
    endloop
  endfacet
  facet normal 0.991445 -0.130527 0
    outer loop
      vertex 3.8637 -1.03528 14
      vertex 4 0 0
      vertex 4 0 14
    endloop
  endfacet
  facet normal 0.991445 -0.130527 0
    outer loop
      vertex 4 0 0
      vertex 3.8637 -1.03528 14
      vertex 3.8637 -1.03528 0
    endloop
  endfacet
  facet normal 0.130527 -0.991445 0
    outer loop
      vertex 0 -4 0
      vertex 1.03528 -3.8637 14
      vertex 0 -4 14
    endloop
  endfacet
  facet normal 0.130527 -0.991445 0
    outer loop
      vertex 1.03528 -3.8637 14
      vertex 0 -4 0
      vertex 1.03528 -3.8637 0
    endloop
  endfacet
  facet normal 0.608762 -0.793353 0
    outer loop
      vertex 2 -3.4641 0
      vertex 2.82843 -2.82843 14
      vertex 2 -3.4641 14
    endloop
  endfacet
  facet normal 0.608762 -0.793353 0
    outer loop
      vertex 2.82843 -2.82843 14
      vertex 2 -3.4641 0
      vertex 2.82843 -2.82843 0
    endloop
  endfacet
  facet normal -0.382683 -0.92388 0
    outer loop
      vertex -2 -3.4641 0
      vertex -1.03528 -3.8637 14
      vertex -2 -3.4641 14
    endloop
  endfacet
  facet normal -0.382683 -0.92388 -0
    outer loop
      vertex -1.03528 -3.8637 14
      vertex -2 -3.4641 0
      vertex -1.03528 -3.8637 0
    endloop
  endfacet
  facet normal -0.793353 -0.608761 0
    outer loop
      vertex -2.82843 -2.82843 0
      vertex -3.4641 -2 14
      vertex -3.4641 -2 0
    endloop
  endfacet
  facet normal -0.793353 -0.608761 0
    outer loop
      vertex -3.4641 -2 14
      vertex -2.82843 -2.82843 0
      vertex -2.82843 -2.82843 14
    endloop
  endfacet
  facet normal -0.991445 -0.130527 0
    outer loop
      vertex -3.8637 -1.03528 0
      vertex -4 0 14
      vertex -4 0 0
    endloop
  endfacet
  facet normal -0.991445 -0.130527 0
    outer loop
      vertex -4 0 14
      vertex -3.8637 -1.03528 0
      vertex -3.8637 -1.03528 14
    endloop
  endfacet
  facet normal 0.382683 -0.92388 0
    outer loop
      vertex 1.03528 -3.8637 0
      vertex 2 -3.4641 14
      vertex 1.03528 -3.8637 14
    endloop
  endfacet
  facet normal 0.382683 -0.92388 0
    outer loop
      vertex 2 -3.4641 14
      vertex 1.03528 -3.8637 0
      vertex 2 -3.4641 0
    endloop
  endfacet
  facet normal -0.923879 -0.382684 0
    outer loop
      vertex -3.4641 -2 0
      vertex -3.8637 -1.03528 14
      vertex -3.8637 -1.03528 0
    endloop
  endfacet
  facet normal -0.923879 -0.382684 0
    outer loop
      vertex -3.8637 -1.03528 14
      vertex -3.4641 -2 0
      vertex -3.4641 -2 14
    endloop
  endfacet
  facet normal -0.991445 -0.130527 0
    outer loop
      vertex 2.2 0 0
      vertex 2.12504 0.569402 14
      vertex 2.12504 0.569402 0
    endloop
  endfacet
  facet normal -0.991445 -0.130527 0
    outer loop
      vertex 2.12504 0.569402 14
      vertex 2.2 0 0
      vertex 2.2 0 14
    endloop
  endfacet
  facet normal 0.991445 -0.130527 0
    outer loop
      vertex -2.2 0 14
      vertex -2.12504 0.569402 0
      vertex -2.12504 0.569402 14
    endloop
  endfacet
  facet normal 0.991445 -0.130527 0
    outer loop
      vertex -2.12504 0.569402 0
      vertex -2.2 0 14
      vertex -2.2 0 0
    endloop
  endfacet
  facet normal -0.130527 -0.991445 0
    outer loop
      vertex 0 2.2 0
      vertex 0.569402 2.12504 14
      vertex 0 2.2 14
    endloop
  endfacet
  facet normal -0.130527 -0.991445 -0
    outer loop
      vertex 0.569402 2.12504 14
      vertex 0 2.2 0
      vertex 0.569402 2.12504 0
    endloop
  endfacet
  facet normal -0.130527 0.991445 0
    outer loop
      vertex 0.569402 -2.12504 0
      vertex 0 -2.2 14
      vertex 0.569402 -2.12504 14
    endloop
  endfacet
  facet normal -0.130527 0.991445 0
    outer loop
      vertex 0 -2.2 14
      vertex 0.569402 -2.12504 0
      vertex 0 -2.2 0
    endloop
  endfacet
  facet normal -0.793354 -0.608761 0
    outer loop
      vertex 1.90526 1.1 0
      vertex 1.55563 1.55563 14
      vertex 1.55563 1.55563 0
    endloop
  endfacet
  facet normal -0.793354 -0.608761 0
    outer loop
      vertex 1.55563 1.55563 14
      vertex 1.90526 1.1 0
      vertex 1.90526 1.1 14
    endloop
  endfacet
  facet normal -0.923879 -0.382684 0
    outer loop
      vertex 2.12504 0.569402 0
      vertex 1.90526 1.1 14
      vertex 1.90526 1.1 0
    endloop
  endfacet
  facet normal -0.923879 -0.382684 0
    outer loop
      vertex 1.90526 1.1 14
      vertex 2.12504 0.569402 0
      vertex 2.12504 0.569402 14
    endloop
  endfacet
  facet normal 0.608761 -0.793354 0
    outer loop
      vertex -1.55563 1.55563 0
      vertex -1.1 1.90526 14
      vertex -1.55563 1.55563 14
    endloop
  endfacet
  facet normal 0.608761 -0.793354 0
    outer loop
      vertex -1.1 1.90526 14
      vertex -1.55563 1.55563 0
      vertex -1.1 1.90526 0
    endloop
  endfacet
  facet normal 0.130527 -0.991445 0
    outer loop
      vertex -0.569402 2.12504 0
      vertex 0 2.2 14
      vertex -0.569402 2.12504 14
    endloop
  endfacet
  facet normal 0.130527 -0.991445 0
    outer loop
      vertex 0 2.2 14
      vertex -0.569402 2.12504 0
      vertex 0 2.2 0
    endloop
  endfacet
  facet normal -0.923879 0.382684 0
    outer loop
      vertex 1.90526 -1.1 0
      vertex 2.12504 -0.569402 14
      vertex 2.12504 -0.569402 0
    endloop
  endfacet
  facet normal -0.923879 0.382684 0
    outer loop
      vertex 2.12504 -0.569402 14
      vertex 1.90526 -1.1 0
      vertex 1.90526 -1.1 14
    endloop
  endfacet
  facet normal 0.991445 0.130527 0
    outer loop
      vertex -2.12504 -0.569402 14
      vertex -2.2 0 0
      vertex -2.2 0 14
    endloop
  endfacet
  facet normal 0.991445 0.130527 0
    outer loop
      vertex -2.2 0 0
      vertex -2.12504 -0.569402 14
      vertex -2.12504 -0.569402 0
    endloop
  endfacet
  facet normal -0.382684 -0.923879 0
    outer loop
      vertex 0.569402 2.12504 0
      vertex 1.1 1.90526 14
      vertex 0.569402 2.12504 14
    endloop
  endfacet
  facet normal -0.382684 -0.923879 -0
    outer loop
      vertex 1.1 1.90526 14
      vertex 0.569402 2.12504 0
      vertex 1.1 1.90526 0
    endloop
  endfacet
  facet normal -0.608761 -0.793354 0
    outer loop
      vertex 1.1 1.90526 0
      vertex 1.55563 1.55563 14
      vertex 1.1 1.90526 14
    endloop
  endfacet
  facet normal -0.608761 -0.793354 -0
    outer loop
      vertex 1.55563 1.55563 14
      vertex 1.1 1.90526 0
      vertex 1.55563 1.55563 0
    endloop
  endfacet
  facet normal 0.793354 -0.608761 0
    outer loop
      vertex -1.90526 1.1 14
      vertex -1.55563 1.55563 0
      vertex -1.55563 1.55563 14
    endloop
  endfacet
  facet normal 0.793354 -0.608761 0
    outer loop
      vertex -1.55563 1.55563 0
      vertex -1.90526 1.1 14
      vertex -1.90526 1.1 0
    endloop
  endfacet
  facet normal 0.923879 -0.382684 0
    outer loop
      vertex -2.12504 0.569402 14
      vertex -1.90526 1.1 0
      vertex -1.90526 1.1 14
    endloop
  endfacet
  facet normal 0.923879 -0.382684 0
    outer loop
      vertex -1.90526 1.1 0
      vertex -2.12504 0.569402 14
      vertex -2.12504 0.569402 0
    endloop
  endfacet
  facet normal 0.382684 -0.923879 0
    outer loop
      vertex -1.1 1.90526 0
      vertex -0.569402 2.12504 14
      vertex -1.1 1.90526 14
    endloop
  endfacet
  facet normal 0.382684 -0.923879 0
    outer loop
      vertex -0.569402 2.12504 14
      vertex -1.1 1.90526 0
      vertex -0.569402 2.12504 0
    endloop
  endfacet
  facet normal -0.991445 0.130527 0
    outer loop
      vertex 2.12504 -0.569402 0
      vertex 2.2 0 14
      vertex 2.2 0 0
    endloop
  endfacet
  facet normal -0.991445 0.130527 0
    outer loop
      vertex 2.2 0 14
      vertex 2.12504 -0.569402 0
      vertex 2.12504 -0.569402 14
    endloop
  endfacet
  facet normal 0.608761 0.793354 -0
    outer loop
      vertex -1.1 -1.90526 0
      vertex -1.55563 -1.55563 14
      vertex -1.1 -1.90526 14
    endloop
  endfacet
  facet normal 0.608761 0.793354 0
    outer loop
      vertex -1.55563 -1.55563 14
      vertex -1.1 -1.90526 0
      vertex -1.55563 -1.55563 0
    endloop
  endfacet
  facet normal 0.130527 0.991445 -0
    outer loop
      vertex 0 -2.2 0
      vertex -0.569402 -2.12504 14
      vertex 0 -2.2 14
    endloop
  endfacet
  facet normal 0.130527 0.991445 0
    outer loop
      vertex -0.569402 -2.12504 14
      vertex 0 -2.2 0
      vertex -0.569402 -2.12504 0
    endloop
  endfacet
  facet normal 0.923879 0.382684 0
    outer loop
      vertex -1.90526 -1.1 14
      vertex -2.12504 -0.569402 0
      vertex -2.12504 -0.569402 14
    endloop
  endfacet
  facet normal 0.923879 0.382684 0
    outer loop
      vertex -2.12504 -0.569402 0
      vertex -1.90526 -1.1 14
      vertex -1.90526 -1.1 0
    endloop
  endfacet
  facet normal -0.793354 0.608761 0
    outer loop
      vertex 1.55563 -1.55563 0
      vertex 1.90526 -1.1 14
      vertex 1.90526 -1.1 0
    endloop
  endfacet
  facet normal -0.793354 0.608761 0
    outer loop
      vertex 1.90526 -1.1 14
      vertex 1.55563 -1.55563 0
      vertex 1.55563 -1.55563 14
    endloop
  endfacet
  facet normal -0.382684 0.923879 0
    outer loop
      vertex 1.1 -1.90526 0
      vertex 0.569402 -2.12504 14
      vertex 1.1 -1.90526 14
    endloop
  endfacet
  facet normal -0.382684 0.923879 0
    outer loop
      vertex 0.569402 -2.12504 14
      vertex 1.1 -1.90526 0
      vertex 0.569402 -2.12504 0
    endloop
  endfacet
  facet normal 0.382684 0.923879 -0
    outer loop
      vertex -0.569402 -2.12504 0
      vertex -1.1 -1.90526 14
      vertex -0.569402 -2.12504 14
    endloop
  endfacet
  facet normal 0.382684 0.923879 0
    outer loop
      vertex -1.1 -1.90526 14
      vertex -0.569402 -2.12504 0
      vertex -1.1 -1.90526 0
    endloop
  endfacet
  facet normal 0.793354 0.608761 0
    outer loop
      vertex -1.55563 -1.55563 14
      vertex -1.90526 -1.1 0
      vertex -1.90526 -1.1 14
    endloop
  endfacet
  facet normal 0.793354 0.608761 0
    outer loop
      vertex -1.90526 -1.1 0
      vertex -1.55563 -1.55563 14
      vertex -1.55563 -1.55563 0
    endloop
  endfacet
  facet normal -0.608761 0.793354 0
    outer loop
      vertex 1.55563 -1.55563 0
      vertex 1.1 -1.90526 14
      vertex 1.55563 -1.55563 14
    endloop
  endfacet
  facet normal -0.608761 0.793354 0
    outer loop
      vertex 1.1 -1.90526 14
      vertex 1.55563 -1.55563 0
      vertex 1.1 -1.90526 0
    endloop
  endfacet
endsolid OpenSCAD_Model
