solid OpenSCAD_Model
  facet normal 0 0 -1
    outer loop
      vertex -8.66025 -15 0
      vertex -8.66025 15 0
      vertex 17.3205 0 0
    endloop
  endfacet
  facet normal -0.471405 -0.816497 -0.333333
    outer loop
      vertex 0 0 24.4949
      vertex -8.66025 15 0
      vertex 17.3205 0 0
    endloop
  endfacet
  facet normal 0.942809 0 -0.333333
    outer loop
      vertex 0 0 24.4949
      vertex -8.66025 -15 0
      vertex -8.66025 15 0
    endloop
  endfacet
  facet normal -0.471405 0.816497 -0.333333
    outer loop
      vertex 0 0 24.4949
      vertex 17.3205 0 0
      vertex -8.66025 -15 0
    endloop
  endfacet
endsolid OpenSCAD_Model
