solid OpenSCAD_Model
  facet normal -0.130526 0.991445 0
    outer loop
      vertex 0 4.1 0
      vertex -1.06116 3.9603 8
      vertex 0 4.1 8
    endloop
  endfacet
  facet normal -0.130526 0.991445 0
    outer loop
      vertex -1.06116 3.9603 8
      vertex 0 4.1 0
      vertex -1.06116 3.9603 0
    endloop
  endfacet
  facet normal 0.130526 -0.991445 0
    outer loop
      vertex 0 -4.1 0
      vertex 1.06116 -3.9603 8
      vertex 0 -4.1 8
    endloop
  endfacet
  facet normal 0.130526 -0.991445 0
    outer loop
      vertex 1.06116 -3.9603 8
      vertex 0 -4.1 0
      vertex 1.06116 -3.9603 0
    endloop
  endfacet
  facet normal 0.793353 -0.608761 0
    outer loop
      vertex 2.89914 -2.89914 8
      vertex 3.5507 -2.05 0
      vertex 3.5507 -2.05 8
    endloop
  endfacet
  facet normal 0.793353 -0.608761 0
    outer loop
      vertex 3.5507 -2.05 0
      vertex 2.89914 -2.89914 8
      vertex 2.89914 -2.89914 0
    endloop
  endfacet
  facet normal 0.608761 0.793353 -0
    outer loop
      vertex 2.89914 2.89914 0
      vertex 2.05 3.5507 8
      vertex 2.89914 2.89914 8
    endloop
  endfacet
  facet normal 0.608761 0.793353 0
    outer loop
      vertex 2.05 3.5507 8
      vertex 2.89914 2.89914 0
      vertex 2.05 3.5507 0
    endloop
  endfacet
  facet normal 0.382683 0.92388 -0
    outer loop
      vertex 2.05 3.5507 0
      vertex 1.06116 3.9603 8
      vertex 2.05 3.5507 8
    endloop
  endfacet
  facet normal 0.382683 0.92388 0
    outer loop
      vertex 1.06116 3.9603 8
      vertex 2.05 3.5507 0
      vertex 1.06116 3.9603 0
    endloop
  endfacet
  facet normal -0.608761 0.793353 0
    outer loop
      vertex -2.05 3.5507 0
      vertex -2.89914 2.89914 8
      vertex -2.05 3.5507 8
    endloop
  endfacet
  facet normal -0.608761 0.793353 0
    outer loop
      vertex -2.89914 2.89914 8
      vertex -2.05 3.5507 0
      vertex -2.89914 2.89914 0
    endloop
  endfacet
  facet normal -0.793353 0.608761 0
    outer loop
      vertex -3.5507 2.05 0
      vertex -2.89914 2.89914 8
      vertex -2.89914 2.89914 0
    endloop
  endfacet
  facet normal -0.793353 0.608761 0
    outer loop
      vertex -2.89914 2.89914 8
      vertex -3.5507 2.05 0
      vertex -3.5507 2.05 8
    endloop
  endfacet
  facet normal -0.382683 0.92388 0
    outer loop
      vertex -1.06116 3.9603 0
      vertex -2.05 3.5507 8
      vertex -1.06116 3.9603 8
    endloop
  endfacet
  facet normal -0.382683 0.92388 0
    outer loop
      vertex -2.05 3.5507 8
      vertex -1.06116 3.9603 0
      vertex -2.05 3.5507 0
    endloop
  endfacet
  facet normal 0.92388 -0.382683 0
    outer loop
      vertex 3.5507 -2.05 8
      vertex 3.6 -1.93099 0
      vertex 3.6 -1.93099 8
    endloop
  endfacet
  facet normal 0.92388 -0.382683 0
    outer loop
      vertex 3.6 -1.93099 0
      vertex 3.5507 -2.05 8
      vertex 3.5507 -2.05 0
    endloop
  endfacet
  facet normal 0.793353 0.608761 0
    outer loop
      vertex 3.5507 2.05 8
      vertex 2.89914 2.89914 0
      vertex 2.89914 2.89914 8
    endloop
  endfacet
  facet normal 0.793353 0.608761 0
    outer loop
      vertex 2.89914 2.89914 0
      vertex 3.5507 2.05 8
      vertex 3.5507 2.05 0
    endloop
  endfacet
  facet normal 0.92388 0.382683 0
    outer loop
      vertex 3.6 1.93099 8
      vertex 3.5507 2.05 0
      vertex 3.5507 2.05 8
    endloop
  endfacet
  facet normal 0.92388 0.382683 0
    outer loop
      vertex 3.5507 2.05 0
      vertex 3.6 1.93099 8
      vertex 3.6 1.93099 0
    endloop
  endfacet
  facet normal 0.130526 0.991445 -0
    outer loop
      vertex 1.06116 3.9603 0
      vertex 0 4.1 8
      vertex 1.06116 3.9603 8
    endloop
  endfacet
  facet normal 0.130526 0.991445 0
    outer loop
      vertex 0 4.1 8
      vertex 1.06116 3.9603 0
      vertex 0 4.1 0
    endloop
  endfacet
  facet normal -0.92388 0.382683 0
    outer loop
      vertex -3.6 1.93099 0
      vertex -3.5507 2.05 8
      vertex -3.5507 2.05 0
    endloop
  endfacet
  facet normal -0.92388 0.382683 0
    outer loop
      vertex -3.5507 2.05 8
      vertex -3.6 1.93099 0
      vertex -3.6 1.93099 8
    endloop
  endfacet
  facet normal 0 0 1
    outer loop
      vertex 2.89914 2.89914 8
      vertex 3.6 1.93099 8
      vertex 3.5507 2.05 8
    endloop
  endfacet
  facet normal 0 0 1
    outer loop
      vertex 2.05 3.5507 8
      vertex 3.6 1.93099 8
      vertex 2.89914 2.89914 8
    endloop
  endfacet
  facet normal 0 0 1
    outer loop
      vertex 3.6 1.93099 8
      vertex 2.05 3.5507 8
      vertex 3.6 -1.93099 8
    endloop
  endfacet
  facet normal 0 0 1
    outer loop
      vertex 3.6 -1.93099 8
      vertex 2.89914 -2.89914 8
      vertex 3.5507 -2.05 8
    endloop
  endfacet
  facet normal 0 0 1
    outer loop
      vertex 2.05 -3.5507 8
      vertex 3.6 -1.93099 8
      vertex 2.05 3.5507 8
    endloop
  endfacet
  facet normal 0 0 1
    outer loop
      vertex 3.6 -1.93099 8
      vertex 2.05 -3.5507 8
      vertex 2.89914 -2.89914 8
    endloop
  endfacet
  facet normal 0 0 1
    outer loop
      vertex 1.06116 3.9603 8
      vertex 2.05 -3.5507 8
      vertex 2.05 3.5507 8
    endloop
  endfacet
  facet normal 0 0 1
    outer loop
      vertex 1.06116 3.9603 8
      vertex 1.06116 -3.9603 8
      vertex 2.05 -3.5507 8
    endloop
  endfacet
  facet normal 0 0 1
    outer loop
      vertex 0 4.1 8
      vertex 1.06116 -3.9603 8
      vertex 1.06116 3.9603 8
    endloop
  endfacet
  facet normal 0 0 1
    outer loop
      vertex 0 4.1 8
      vertex 0 -4.1 8
      vertex 1.06116 -3.9603 8
    endloop
  endfacet
  facet normal -0 0 1
    outer loop
      vertex -1.06116 3.9603 8
      vertex 0 -4.1 8
      vertex 0 4.1 8
    endloop
  endfacet
  facet normal 0 0 1
    outer loop
      vertex -1.06116 3.9603 8
      vertex -1.06116 -3.9603 8
      vertex 0 -4.1 8
    endloop
  endfacet
  facet normal -0 0 1
    outer loop
      vertex -2.05 3.5507 8
      vertex -1.06116 -3.9603 8
      vertex -1.06116 3.9603 8
    endloop
  endfacet
  facet normal 0 0 1
    outer loop
      vertex -2.05 3.5507 8
      vertex -2.05 -3.5507 8
      vertex -1.06116 -3.9603 8
    endloop
  endfacet
  facet normal 0 0 1
    outer loop
      vertex -3.6 1.93099 8
      vertex -2.05 3.5507 8
      vertex -2.89914 2.89914 8
    endloop
  endfacet
  facet normal 0 0 1
    outer loop
      vertex -2.05 3.5507 8
      vertex -3.6 1.93099 8
      vertex -2.05 -3.5507 8
    endloop
  endfacet
  facet normal 0 0 1
    outer loop
      vertex -3.6 1.93099 8
      vertex -2.89914 2.89914 8
      vertex -3.5507 2.05 8
    endloop
  endfacet
  facet normal -0 0 1
    outer loop
      vertex -3.6 -1.93099 8
      vertex -2.05 -3.5507 8
      vertex -3.6 1.93099 8
    endloop
  endfacet
  facet normal 0 0 1
    outer loop
      vertex -2.05 -3.5507 8
      vertex -3.6 -1.93099 8
      vertex -2.89914 -2.89914 8
    endloop
  endfacet
  facet normal 0 0 1
    outer loop
      vertex -2.89914 -2.89914 8
      vertex -3.6 -1.93099 8
      vertex -3.5507 -2.05 8
    endloop
  endfacet
  facet normal 0 0 -1
    outer loop
      vertex 2.89914 -2.89914 0
      vertex 3.6 -1.93099 0
      vertex 3.5507 -2.05 0
    endloop
  endfacet
  facet normal 0 0 -1
    outer loop
      vertex 2.05 -3.5507 0
      vertex 3.6 -1.93099 0
      vertex 2.89914 -2.89914 0
    endloop
  endfacet
  facet normal -0 0 -1
    outer loop
      vertex 3.6 -1.93099 0
      vertex 2.05 -3.5507 0
      vertex 3.6 1.93099 0
    endloop
  endfacet
  facet normal 0 0 -1
    outer loop
      vertex 3.6 1.93099 0
      vertex 2.89914 2.89914 0
      vertex 3.5507 2.05 0
    endloop
  endfacet
  facet normal 0 0 -1
    outer loop
      vertex 2.05 3.5507 0
      vertex 3.6 1.93099 0
      vertex 2.05 -3.5507 0
    endloop
  endfacet
  facet normal 0 0 -1
    outer loop
      vertex 3.6 1.93099 0
      vertex 2.05 3.5507 0
      vertex 2.89914 2.89914 0
    endloop
  endfacet
  facet normal 0 0 -1
    outer loop
      vertex 1.06116 -3.9603 0
      vertex 2.05 3.5507 0
      vertex 2.05 -3.5507 0
    endloop
  endfacet
  facet normal 0 0 -1
    outer loop
      vertex 1.06116 -3.9603 0
      vertex 1.06116 3.9603 0
      vertex 2.05 3.5507 0
    endloop
  endfacet
  facet normal 0 0 -1
    outer loop
      vertex 0 -4.1 0
      vertex 1.06116 3.9603 0
      vertex 1.06116 -3.9603 0
    endloop
  endfacet
  facet normal 0 0 -1
    outer loop
      vertex 0 -4.1 0
      vertex 0 4.1 0
      vertex 1.06116 3.9603 0
    endloop
  endfacet
  facet normal 0 0 -1
    outer loop
      vertex -1.06116 -3.9603 0
      vertex 0 4.1 0
      vertex 0 -4.1 0
    endloop
  endfacet
  facet normal 0 0 -1
    outer loop
      vertex -1.06116 -3.9603 0
      vertex -1.06116 3.9603 0
      vertex 0 4.1 0
    endloop
  endfacet
  facet normal 0 0 -1
    outer loop
      vertex -2.05 -3.5507 0
      vertex -1.06116 3.9603 0
      vertex -1.06116 -3.9603 0
    endloop
  endfacet
  facet normal 0 0 -1
    outer loop
      vertex -2.05 -3.5507 0
      vertex -2.05 3.5507 0
      vertex -1.06116 3.9603 0
    endloop
  endfacet
  facet normal 0 0 -1
    outer loop
      vertex -3.6 -1.93099 0
      vertex -2.05 -3.5507 0
      vertex -2.89914 -2.89914 0
    endloop
  endfacet
  facet normal 0 0 -1
    outer loop
      vertex -2.05 -3.5507 0
      vertex -3.6 -1.93099 0
      vertex -2.05 3.5507 0
    endloop
  endfacet
  facet normal 0 0 -1
    outer loop
      vertex -3.6 -1.93099 0
      vertex -2.89914 -2.89914 0
      vertex -3.5507 -2.05 0
    endloop
  endfacet
  facet normal 0 0 -1
    outer loop
      vertex -3.6 1.93099 0
      vertex -2.05 3.5507 0
      vertex -3.6 -1.93099 0
    endloop
  endfacet
  facet normal 0 0 -1
    outer loop
      vertex -2.05 3.5507 0
      vertex -3.6 1.93099 0
      vertex -2.89914 2.89914 0
    endloop
  endfacet
  facet normal 0 0 -1
    outer loop
      vertex -2.89914 2.89914 0
      vertex -3.6 1.93099 0
      vertex -3.5507 2.05 0
    endloop
  endfacet
  facet normal 0.382683 -0.92388 0
    outer loop
      vertex 1.06116 -3.9603 0
      vertex 2.05 -3.5507 8
      vertex 1.06116 -3.9603 8
    endloop
  endfacet
  facet normal 0.382683 -0.92388 0
    outer loop
      vertex 2.05 -3.5507 8
      vertex 1.06116 -3.9603 0
      vertex 2.05 -3.5507 0
    endloop
  endfacet
  facet normal -0.608761 -0.793353 0
    outer loop
      vertex -2.89914 -2.89914 0
      vertex -2.05 -3.5507 8
      vertex -2.89914 -2.89914 8
    endloop
  endfacet
  facet normal -0.608761 -0.793353 -0
    outer loop
      vertex -2.05 -3.5507 8
      vertex -2.89914 -2.89914 0
      vertex -2.05 -3.5507 0
    endloop
  endfacet
  facet normal -0.793353 -0.608761 0
    outer loop
      vertex -2.89914 -2.89914 0
      vertex -3.5507 -2.05 8
      vertex -3.5507 -2.05 0
    endloop
  endfacet
  facet normal -0.793353 -0.608761 0
    outer loop
      vertex -3.5507 -2.05 8
      vertex -2.89914 -2.89914 0
      vertex -2.89914 -2.89914 8
    endloop
  endfacet
  facet normal 0.608761 -0.793353 0
    outer loop
      vertex 2.05 -3.5507 0
      vertex 2.89914 -2.89914 8
      vertex 2.05 -3.5507 8
    endloop
  endfacet
  facet normal 0.608761 -0.793353 0
    outer loop
      vertex 2.89914 -2.89914 8
      vertex 2.05 -3.5507 0
      vertex 2.89914 -2.89914 0
    endloop
  endfacet
  facet normal -0.92388 -0.382683 0
    outer loop
      vertex -3.5507 -2.05 0
      vertex -3.6 -1.93099 8
      vertex -3.6 -1.93099 0
    endloop
  endfacet
  facet normal -0.92388 -0.382683 0
    outer loop
      vertex -3.6 -1.93099 8
      vertex -3.5507 -2.05 0
      vertex -3.5507 -2.05 8
    endloop
  endfacet
  facet normal -0.382683 -0.92388 0
    outer loop
      vertex -2.05 -3.5507 0
      vertex -1.06116 -3.9603 8
      vertex -2.05 -3.5507 8
    endloop
  endfacet
  facet normal -0.382683 -0.92388 -0
    outer loop
      vertex -1.06116 -3.9603 8
      vertex -2.05 -3.5507 0
      vertex -1.06116 -3.9603 0
    endloop
  endfacet
  facet normal -0.130526 -0.991445 0
    outer loop
      vertex -1.06116 -3.9603 0
      vertex 0 -4.1 8
      vertex -1.06116 -3.9603 8
    endloop
  endfacet
  facet normal -0.130526 -0.991445 -0
    outer loop
      vertex 0 -4.1 8
      vertex -1.06116 -3.9603 0
      vertex 0 -4.1 0
    endloop
  endfacet
  facet normal 1 -0 0
    outer loop
      vertex 3.6 -1.93099 8
      vertex 3.6 1.93099 0
      vertex 3.6 1.93099 8
    endloop
  endfacet
  facet normal 1 0 0
    outer loop
      vertex 3.6 1.93099 0
      vertex 3.6 -1.93099 8
      vertex 3.6 -1.93099 0
    endloop
  endfacet
  facet normal -1 0 0
    outer loop
      vertex -3.6 -1.93099 0
      vertex -3.6 1.93099 8
      vertex -3.6 1.93099 0
    endloop
  endfacet
  facet normal -1 -0 0
    outer loop
      vertex -3.6 1.93099 8
      vertex -3.6 -1.93099 0
      vertex -3.6 -1.93099 8
    endloop
  endfacet
endsolid OpenSCAD_Model
