<?xml version="1.0" encoding="UTF-8" standalone="no"?>
<!-- Created with Inkscape (http://www.inkscape.org/) -->

<svg
   xmlns:dc="http://purl.org/dc/elements/1.1/"
   xmlns:cc="http://creativecommons.org/ns#"
   xmlns:rdf="http://www.w3.org/1999/02/22-rdf-syntax-ns#"
   xmlns:svg="http://www.w3.org/2000/svg"
   xmlns="http://www.w3.org/2000/svg"
   xmlns:sodipodi="http://sodipodi.sourceforge.net/DTD/sodipodi-0.dtd"
   xmlns:inkscape="http://www.inkscape.org/namespaces/inkscape"
   width="20mm"
   height="20mm"
   viewBox="0 0 70.866142 70.866141"
   id="svg2"
   version="1.1"
   inkscape:version="0.91 r13725"
   sodipodi:docname="face.svg">
  <defs
     id="defs4" />
  <sodipodi:namedview
     id="base"
     pagecolor="#ffffff"
     bordercolor="#666666"
     borderopacity="1.0"
     inkscape:pageopacity="0.0"
     inkscape:pageshadow="2"
     inkscape:zoom="32"
     inkscape:cx="52.445619"
     inkscape:cy="17.22678"
     inkscape:document-units="px"
     inkscape:current-layer="layer2"
     showgrid="false"
     inkscape:window-width="2560"
     inkscape:window-height="1395"
     inkscape:window-x="0"
     inkscape:window-y="1"
     inkscape:window-maximized="1" />
  <metadata
     id="metadata7">
    <rdf:RDF>
      <cc:Work
         rdf:about="">
        <dc:format>image/svg+xml</dc:format>
        <dc:type
           rdf:resource="http://purl.org/dc/dcmitype/StillImage" />
        <dc:title></dc:title>
      </cc:Work>
    </rdf:RDF>
  </metadata>
  <g
     inkscape:label="Layer 1"
     inkscape:groupmode="layer"
     id="layer1"
     transform="translate(0,-981.49606)"
     style="display:inline">
    <circle
       style="opacity:1;fill:#76e343;fill-opacity:1;stroke:#000000;stroke-width:0;stroke-miterlimit:4;stroke-dasharray:none;stroke-opacity:1"
       id="path5308"
       cx="31.889765"
       cy="1020.4724"
       r="31.889759" />
  </g>
  <g
     inkscape:groupmode="layer"
     id="layer2"
     inkscape:label="Layer 2">
    <path
       style="fill:#000000"
       d="M 32.14254,67.663488 C 28.605465,63.794303 25.845105,59.225456 22.228136,55.414561 20.817448,54.45167 18.680458,54.925712 17.232873,53.757332 12.720495,51.633602 9.551745,47.073702 8.9658135,42.134892 8.8257518,39.275177 8.0763219,36.643166 5.6587994,34.878051 4.5915703,33.369162 2.5886238,31.892017 2.2087112,30.213549 3.1601271,29.094413 0.74908679,31.851788 1.8699831,29.692144 c 2.0778553,-0.776825 4.6806146,0.889656 6.9663841,0.02354 -0.5059635,-0.750302 1.6873068,-1.50503 0.00114,-2.38286 -1.2029056,-1.0373 -2.7604229,-3.968543 -2.2312815,-4.816309 0.8743789,2.199339 2.6957296,4.567899 4.2527876,5.695098 -0.545767,3.421927 -3.7538343,2.436231 -6.2688799,2.20131 -1.7333337,-0.49777 -2.275063,0.391568 -0.7790512,0.834054 1.3224944,-0.667533 4.3028892,1.469418 5.7351141,0.35468 -1.0175086,1.347026 -0.106381,6.4911 -2.2694003,3.051628 -1.2313181,-0.728781 -2.213746,-4.597698 -3.0675748,-2.562641 1.5532313,1.849048 3.3329313,3.497191 4.8612856,5.366384 -0.229659,2.803673 0.3502465,5.874851 1.6634585,8.41427 1.531996,2.981071 3.988319,5.454584 6.636881,7.421394 1.677751,1.370679 4.324293,0.743691 5.632359,1.419786 2.70999,3.634431 5.539327,7.197095 8.529299,10.606102 1.163852,0.391008 1.170682,3.198834 1.37155,0.74089 2.836434,-2.696505 4.828556,-6.172573 7.288284,-9.212964 0.507135,-1.078722 3.471272,-4.444691 1.584663,-1.576201 1.17969,-1.566606 3.840364,-0.40519 5.300302,-1.964368 -2.676785,0.682647 3.010041,-1.698543 3.387714,-2.813278 3.302353,-3.192494 4.762968,-8.000651 4.622527,-12.509667 -0.383971,-1.913283 2.896173,-3.334035 3.81992,-5.103952 0.665612,-1.190205 3.800948,-3.312876 0.642529,-2.593001 -2.729372,0.187643 -6.207936,1.285696 -6.942987,-2.347242 1.150526,-1.479651 4.566677,-3.803033 3.61861,-6.014102 -0.620187,2.17757 -1.876917,4.312522 -4.120794,5.152009 -4.878243,2.513186 -10.691873,-0.236229 -15.519586,2.410243 -1.696555,0.362069 -2.945153,3.162995 -4.20567,2.924179 -0.2085,-1.961832 0.04263,-6.199484 -0.180076,-6.608707 -0.924755,1.736258 0.472213,-2.16384 1.288463,-2.428404 1.042124,-1.133227 1.103704,-0.731735 0.391168,0.06467 0.540001,-0.930752 4.836344,-2.303206 2.220768,-0.876777 -1.601644,0.129424 -4.850676,4.656611 -1.805613,3.020816 1.799916,-0.836778 3.676578,-2.330084 5.984677,-2.042313 2.514888,-0.730717 4.852436,0.103025 7.439965,-0.262817 2.675262,-0.115965 5.589978,0.04507 8.003089,-1.223053 -0.388278,-1.006798 2.263998,-0.624612 0.607428,-1.364056 -1.436398,0.02442 -4.914739,-0.226134 -1.671581,-0.234242 1.611181,0.451662 3.732106,-1.420336 2.995115,1.336358 -0.06743,2.616762 -1.755344,4.976105 -3.926956,6.327664 0.429734,3.178506 3.653599,1.710383 5.779831,1.771082 1.800245,-0.77672 3.606643,0.05519 1.893922,1.908252 -1.79122,2.112095 -3.836867,4.028083 -5.492118,6.239837 -0.101601,4.615508 -0.936945,9.635504 -4.450201,12.957386 -2.296928,2.34236 -5.378017,3.844358 -8.639306,4.170408 -3.314575,4.066889 -6.218295,8.462047 -9.560648,12.499615 -0.328719,0.228479 -0.777923,0.17247 -1.114968,-0.0033 z M 55.710724,36.764563 c -0.684412,0.298076 -0.408772,0.792445 0,0 z M 32.688328,25.036277 c 0.244435,-0.737356 -0.472419,0.745277 0,0 z m -1.918584,38.807506 c -2.395199,-3.193649 -4.932706,-6.293853 -7.300495,-9.497879 1.710595,0.135781 5.00695,-0.541643 6.897333,-2.226921 2.599847,-1.421792 1.243435,2.039502 1.47707,3.602608 0.02186,2.977272 0.213223,5.953055 0.185582,8.929822 -0.462509,0.569977 -0.990324,-0.609932 -1.25949,-0.80763 z m -4.754933,-9.207547 c -0.76833,-0.161168 -0.146925,0.167103 0,0 z m 7.138065,10.09249 c -0.06601,-4.085581 -0.387631,-8.180847 -0.191353,-12.263137 2.082639,-1.657852 3.413576,2.696107 5.982536,2.023879 1.122463,0.852798 3.218631,-1.372503 1.811874,0.690153 -2.325783,3.197752 -4.723791,6.347392 -7.087891,9.515325 l -0.246428,0.111864 -0.268746,-0.07812 8e-6,3.5e-5 z m 0.726266,-12.415277 c -0.172661,-0.463851 -0.508418,0.484006 0,0 z m -12.106604,1.13062 C 16.541162,53.162577 12.24603,48.73928 10.762685,43.936248 9.9592,39.777485 9.240796,35.413867 10.328703,31.23383 c -0.494666,-1.304009 1.890477,-3.857816 0.866865,-1.235923 -0.840174,1.991947 5.441324,2.79601 2.429303,0.86004 -0.817643,-0.443429 -2.560766,-3.015917 -0.574775,-1.500894 1.715749,1.240167 3.29105,2.78012 1.523247,4.75338 -1.651558,3.870112 -1.283706,8.820433 1.868868,11.846503 0.453843,0.423465 2.337122,2.063805 0.707367,1.510697 2.18454,1.57654 5.165661,1.961799 7.798272,1.608334 1.158561,-0.18516 2.555353,-0.918069 0.600504,-0.354357 -0.720345,-0.208738 2.884515,-1.551375 3.484971,-1.19731 1.709037,1.759621 1.751813,4.28854 -0.950733,4.948963 -1.950833,0.94635 -4.175797,1.11073 -6.310054,0.970806 z m 18.556844,0.0079 c -2.180234,-0.319665 -4.934886,-0.802318 -6.115769,-2.850445 -0.424861,-1.006425 1.479334,-4.111535 1.426449,-2.897352 2.157105,0.426526 4.852749,1.889236 7.419976,1.576252 1.210482,-0.178388 2.596276,-0.584597 0.997252,-0.603814 0.705971,-0.07942 4.390624,-2.41561 2.59182,-1.502529 -1.563201,0.857499 1.919918,-2.074657 2.511761,-2.468833 0.200262,-1.970194 1.641116,-3.00276 1.283352,-5.477032 0.01172,-2.517606 -0.888154,-4.992424 -2.025771,-7.146867 0.771278,-1.006865 2.93166,-3.148864 0.731112,-1.164284 -0.632348,0.850409 -1.851717,2.427807 -1.120516,0.555501 0.62224,-1.434131 4.05884,-3.742134 3.323268,-2.409196 0.879122,-0.176075 0.315496,0.642234 1.095378,-0.223425 1.375579,2.111766 1.461625,4.830285 1.778921,7.284732 0.13724,4.65299 -0.124372,9.868606 -3.601139,13.38684 -2.592732,2.928201 -6.40456,4.426267 -10.296094,3.940453 z M 50.726731,31.201138 c 0.567206,-0.617925 1.666716,-2.675361 0.147625,-1.014484 -0.705284,0.518572 -2.530309,2.526011 -0.439644,1.330975 l 0.292019,-0.316491 0,0 z M 28.35868,53.063799 c 0.809833,-0.778754 2.820846,-1.632169 0.82917,-0.317595 -0.271264,0.0032 -0.529061,0.428459 -0.82917,0.317595 z m 4.031946,-0.391545 c 0.07865,-1.582735 2.267833,-1.869237 0.453019,-0.388829 -0.04499,-0.059 -0.491512,1.570563 -0.453019,0.388829 z M 31.168562,49.996979 C 27.669083,43.682698 24.034158,37.433612 20.900974,30.926585 c -1.411001,-0.874116 2.212326,-1.59989 0.832767,-0.464319 2.610547,0.02727 5.374334,0.401545 7.221986,2.499251 1.619889,1.478546 -1.460409,-1.742021 -2.188541,-1.94409 -1.606516,-1.677911 3.16009,1.149415 3.723754,2.142421 1.045559,0.948143 1.409542,2.187784 2.275071,0.35835 1.44431,-1.523564 3.381356,-3.47262 5.222986,-3.869166 -2.467988,1.261906 -4.509846,3.372623 -6.029494,5.595851 -1.414493,1.052608 -0.02969,5.080915 -0.441761,7.132243 -0.03723,2.600699 0.326911,5.265362 -0.03199,7.827285 l -0.09734,0.02671 -0.219856,-0.234239 -4e-6,9.6e-5 z m 1.71851,0.130248 c -0.38315,-4.302259 -0.194769,-8.675156 -0.411307,-13.002257 -0.611817,-3.019171 2.343659,-5.0775 4.518925,-6.546328 1.390375,-0.928494 2.538604,-0.591525 0.500357,0.191776 -0.191044,0.496785 3.268058,-0.769562 4.446309,-0.465957 2.906248,-1.696836 -0.199367,2.628462 -0.542536,3.838038 -2.656265,5.343659 -5.259844,10.723674 -8.193264,15.920238 l -0.162658,0.113334 -0.155824,-0.04885 -2e-6,8e-6 z m 0.765166,-15.786551 c 0.267791,-0.778773 -0.68674,0.924599 0,0 z m 0.975244,-1.086592 c -0.282057,-0.07882 -0.105788,-0.04858 0,0 z M 21.125187,47.733743 c -3.911437,-0.53894 -6.473152,-4.449313 -6.457022,-8.22873 0.05565,-2.160359 -0.129739,-4.491521 0.978655,-6.344803 0.816722,0.632853 -0.365468,1.787847 1.475266,1.597696 0.687242,0.147441 -1.863936,-2.487381 0.283095,-1.308262 2.470979,1.582846 -1.511168,4.350413 0.199268,6.703591 0.757172,1.227096 2.716712,3.356272 1.864903,3.71602 2.247999,0.857327 5.303571,1.936331 7.397404,0.246567 2.684349,2.049894 -1.219847,3.711895 -3.270159,3.646445 -0.820371,0.09362 -1.653994,0.09692 -2.47141,-0.02852 z m 19.154577,-0.0126 c -2.056258,0.087 -5.381536,-1.917954 -2.444772,-3.434306 0.940331,0.985018 5.268591,0.69381 5.014225,0.264432 -3.298251,1.039065 4.546256,-2.384285 0.936497,-1.035512 1.50998,-1.702329 2.873617,-2.936818 2.896391,-4.85059 0.337211,-2.070273 -2.320982,-4.750448 0.792199,-5.560356 1.884806,0.402813 1.428966,4.112199 1.90298,5.846725 0.155565,2.924354 -0.66225,6.261908 -3.450994,7.733452 -1.661753,1.129229 -3.702232,1.299859 -5.646526,1.036155 z m 6.8177,-13.203639 c 1.992823,-0.9573 -0.632735,-1.421034 -0.496178,0.09494 l 0.496172,-0.09494 6e-6,0 z m -10.731796,11.0286 c 0.300426,-1.15367 1.574655,-2.472198 0.503468,-0.525083 -0.161725,0.04842 -0.229276,0.643297 -0.503468,0.525083 z M 22.223782,43.452285 c -3.100217,-0.279692 -4.130293,-3.800882 -4.077858,-6.446318 0.0179,-2.165199 0.625726,-0.567062 1.583094,-0.121242 -1.697025,-2.627588 3.196947,0.361429 0.561795,1.67896 -0.845349,1.341762 1.011128,2.033773 1.101203,3.129126 0.861071,0.961672 3.395514,-0.521504 2.413451,-0.636236 -2.543644,2.299004 -0.347986,-3.227531 0.348609,-1.913329 0.509104,0.597088 3.575987,4.629469 0.178561,4.356126 -0.701276,0.07482 -1.412487,0.06913 -2.108855,-0.04709 z m 16.650479,-0.08533 c -1.908453,-0.661848 0.06879,-4.167078 1.502875,-4.173259 -0.05345,0.958768 1.146652,3.393674 2.651898,2.53021 -0.455496,-0.152975 -0.450737,-2.065497 0.870424,-1.968056 0.618604,-1.846568 -3.187015,-2.775099 -0.51797,-4.237889 2.753678,-1.993841 -1.952663,2.798219 0.327159,0.705173 2.629881,-2.497651 2.072254,2.903784 1.617213,4.392197 -0.825232,2.879777 -3.974947,3.11766 -6.451599,2.751624 z m 4.809246,-1.797909 c 0.449321,-0.909687 -1.099425,0.602294 0,0 z M 55.181474,35.79434 c 0.366761,-1.480993 -1.462505,-4.226436 -0.59908,-4.561178 1.140386,1.768012 4.544711,-0.435802 5.230465,-0.217358 -1.345146,1.649532 -2.791003,3.938201 -4.631385,4.778536 z m -10.09426,-0.822279 c -0.64617,-1.448308 3.595298,-3.714909 1.195959,-1.426284 -0.574064,0.179338 -0.854785,1.73081 -1.195959,1.426284 z M 30.424755,32.219321 C 27.942491,29.392587 24.06956,27.935377 20.335642,28.344636 16.723267,28.512141 12.543872,28.688891 9.722459,26.028682 7.7921051,24.392471 8.2986582,20.790865 10.82443,23.416831 c 1.125906,0.273634 3.978658,1.063246 3.504651,0.05044 1.856115,-0.719247 3.34729,-0.01839 5.061732,0.120098 1.792346,0.330776 2.768154,-0.02211 4.239784,-0.104054 1.795924,0.660966 3.737691,-0.700729 4.514518,1.022871 -0.736114,-1.249871 3.658979,2.572733 1.664308,0.0524 -0.494799,-0.738875 -2.889682,-2.495018 -0.516651,-1.413352 2.602241,1.448208 1.857991,4.250199 1.968975,6.691004 -0.09129,0.587783 0.633962,4.187467 -0.836992,2.383097 z m -3.144704,-8.432375 c -0.358872,-0.393854 -0.120158,0.407234 0,0 z M 9.773004,31.939803 c 0.472398,-1.749476 -0.06033,1.425371 0,0 z m 10.359463,-1.620675 c -0.12578,-1.401757 3.373853,-1.188241 0.868786,-0.599656 -0.321323,-0.04126 -0.621444,0.921841 -0.868786,0.599656 z m 36.322827,-0.598369 c 1.47489,-0.706761 2.655901,0.229396 0,0 z M 8.078182,29.096618 c 0.3866534,-0.379672 0.386773,0.379637 0,0 z M 31.045685,24.021571 C 29.076292,21.424479 25.699512,20.24876 22.510357,20.62055 17.09842,20.742475 11.674067,20.7158 6.2721297,21.044893 c 0.1896416,-2.343547 -0.5932113,3.23197 -0.647546,0.528148 -0.3372872,-3.195332 3.111051,-0.206002 4.8157493,-1.079084 5.359839,0.0993 10.768077,-0.600236 16.094927,0.131712 2.351767,-0.296336 3.934257,3.625096 5.581587,2.562514 -1.133866,-0.604686 -2.968272,-2.491048 -0.339989,-2.106724 1.611363,-0.276242 1.707498,0.495638 0.597879,1.481126 1.187529,-0.736372 3.406099,-2.907252 4.567028,-1.965614 -2.373788,0.274852 -4.237592,2.941455 -5.512796,3.919165 l -0.180765,-0.222754 -0.202532,-0.271819 1.3e-5,8e-6 z M 7.2694386,22.329382 c -1.3592601,-1.798381 3.1341564,-0.301258 0.3621931,-1.9e-5 l -0.2061791,0.312335 -0.1560109,-0.312335 -3.1e-6,1.9e-5 z M 37.302731,20.455377 c 1.212215,-0.398121 -0.395616,0.354438 0,0 z m 13.049332,0 c 0.172641,-0.463925 0.508419,0.484001 0,0 z m 1.513325,0.02955 c 1.210891,-0.151683 0.238539,0.153585 0,0 z m -5.309042,-0.09849 c 0.700778,-0.115087 -0.06915,0.183809 0,0 z m -7.334688,-0.13852 c 1.765624,-0.08183 0.520563,0.193586 -0.4106,0.06507 l 0.4106,-0.06501 0,-5.7e-5 z m 1.67948,0.02971 c 1.068664,-0.137098 -0.108079,0.173685 0,0 z"
       id="path4209"
       inkscape:connector-curvature="0" />
  </g>
</svg>
